M48
;Layer_Color=9474304
;FILE_FORMAT=4:2
METRIC,LZ
;TYPE=PLATED
T1F00S00C0.60
T2F00S00C0.70
T3F00S00C0.71
T4F00S00C0.80
T5F00S00C0.90
T6F00S00C1.00
T7F00S00C1.10
T8F00S00C1.30
%
T01
X00493Y000406
Y000685
X006176
Y000431
X006176Y000939
X006174Y001218
X006886Y001117
X006759Y001523
Y001779
X006098Y001955
Y002209
X006886Y002514
X006733Y002946
X006759Y003174
X004676Y002971
Y002717
X006759Y00038
X006886Y003911
X006759Y004343
Y004571
X006886Y005308
X006759Y00574
Y005968
X006886Y006679
X006428
X005438Y0064
X005049Y006285
X005362Y00706
X005714Y004042
T02
X006174Y004388
Y004876
X001492Y005637
X001612Y006147
T03
X001298Y000812
T04
X001628Y006883
X001828
X002028
T05
X003609Y000304
Y001066
Y001701
Y002463
Y003098
X003863
X004117
Y002463
X003863
Y001701
X004117
Y001066
X003863
Y000304
X004117
X005133Y000431
Y000685
Y000939
Y001193
Y001447
Y001701
Y001955
Y002209
Y002463
Y002717
Y002971
Y003225
Y003479
X005895
Y003225
Y002971
Y002717
Y002463
Y002209
Y001955
Y001701
Y001447
Y001193
Y000939
Y000685
Y000431
X00747Y000437
Y000687
Y000937
Y001187
Y001834
Y002084
Y002334
Y002584
Y003231
Y003481
Y003731
Y003981
Y004628
Y004878
Y005128
Y005378
Y006025
Y006275
Y006525
Y006775
X005006Y006908
X004756
X004506
X004256
X004117Y005257
X003863
Y004495
X004117
Y00386
X003863
X005133Y003733
X005895
X003609Y00386
Y004495
Y005257
X003533Y006908
X003283
X003033
X002783
T06
X001882Y00066
X002644Y00132
X002872Y001472
X003609
Y002844
X002872
X002618Y002742
X00399Y002717
X003939Y00132
X00403Y004078
X003863Y004241
X004723Y004368
X00559Y004495
X00399Y005486
X004039Y006609
X003888Y006933
X005362Y006895
X003557Y006488
X003686Y006349
X002441Y006629
X002415Y006935
X002228Y006883
X001428
X001729Y005943
X001348Y005206
X000279Y005283
X000129Y006984
X002872Y004571
X002669Y004241
X003609Y004266
T07
X003939Y005841
Y006095
X004193
Y005841
X004549
Y006095
X004803
X005057
X005311
X005565
Y005841
X005311
X005057
X004803
X003685
Y006095
T08
X000713Y000304
Y000812
Y00132
Y001828
Y002336
Y002844
Y003352
X002212Y003522
X002466
X00272
Y001998
X002466
X002212
Y000474
X002466
X00272
Y005046
X002466
X002212
X001213Y005642
Y006142
X000213Y005892
X000713Y004876
Y004368
Y00386
M30
