G04*
G04 #@! TF.GenerationSoftware,Altium Limited,Altium Designer,22.5.1 (42)*
G04*
G04 Layer_Color=65535*
%FSLAX42Y42*%
%MOMM*%
G71*
G04*
G04 #@! TF.SameCoordinates,E9C7B45F-A4FB-49F3-BE10-4E13B05C86B2*
G04*
G04*
G04 #@! TF.FilePolarity,Positive*
G04*
G01*
G75*
%ADD10C,0.25*%
%ADD11C,0.20*%
%ADD12C,0.60*%
%ADD13C,0.25*%
%ADD14C,0.15*%
D10*
X7707Y6775D02*
G03*
X7707Y6775I-12J0D01*
G01*
X3066Y1937D02*
G03*
X3066Y1937I-12J0D01*
G01*
X7707Y3981D02*
G03*
X7707Y3981I-12J0D01*
G01*
Y2584D02*
G03*
X7707Y2584I-12J0D01*
G01*
Y5378D02*
G03*
X7707Y5378I-12J0D01*
G01*
X5019Y6683D02*
G03*
X5019Y6683I-12J0D01*
G01*
X1640Y7170D02*
G03*
X1640Y7170I-12J0D01*
G01*
X3545Y6683D02*
G03*
X3545Y6683I-12J0D01*
G01*
X4260Y1066D02*
G03*
X4260Y1066I-12J0D01*
G01*
Y2463D02*
G03*
X4260Y2463I-12J0D01*
G01*
X7707Y1187D02*
G03*
X7707Y1187I-12J0D01*
G01*
X5908Y301D02*
G03*
X5908Y301I-12J0D01*
G01*
X6187Y5265D02*
G03*
X6187Y5265I-12J0D01*
G01*
X3066Y4985D02*
G03*
X3066Y4985I-12J0D01*
G01*
Y3461D02*
G03*
X3066Y3461I-12J0D01*
G01*
X4260Y3860D02*
G03*
X4260Y3860I-12J0D01*
G01*
Y5257D02*
G03*
X4260Y5257I-12J0D01*
G01*
X3066Y413D02*
G03*
X3066Y413I-12J0D01*
G01*
X6771Y6707D02*
G03*
X6771Y6707I-12J0D01*
G01*
Y5310D02*
G03*
X6771Y5310I-12J0D01*
G01*
Y3913D02*
G03*
X6771Y3913I-12J0D01*
G01*
X1590Y4315D02*
G03*
X1590Y4315I-12J0D01*
G01*
X6771Y1119D02*
G03*
X6771Y1119I-12J0D01*
G01*
Y2517D02*
G03*
X6771Y2517I-12J0D01*
G01*
X5524Y6883D02*
G03*
X5524Y6883I-12J0D01*
G01*
X1590Y1266D02*
G03*
X1590Y1266I-12J0D01*
G01*
Y865D02*
G03*
X1590Y865I-12J0D01*
G01*
Y2898D02*
G03*
X1590Y2898I-12J0D01*
G01*
X1256Y6606D02*
G03*
X1256Y6606I-12J0D01*
G01*
X1590Y3913D02*
G03*
X1590Y3913I-12J0D01*
G01*
D11*
X4253Y749D02*
G03*
X4253Y622I0J-63D01*
G01*
Y2145D02*
G03*
X4253Y2018I0J-63D01*
G01*
X5578Y312D02*
G03*
X5451Y312I-63J0D01*
G01*
X6407Y5117D02*
G03*
X6324Y5199I-82J0D01*
G01*
X6024Y5199D02*
G03*
X5942Y5117I0J-82D01*
G01*
Y4147D02*
G03*
X6024Y4065I82J-0D01*
G01*
X6324Y4065D02*
G03*
X6407Y4147I0J82D01*
G01*
X4253Y3542D02*
G03*
X4253Y3415I0J-63D01*
G01*
Y4940D02*
G03*
X4253Y4812I0J-63D01*
G01*
X1492Y5146D02*
Y5216D01*
X1662Y5146D02*
Y5216D01*
X6343Y6798D02*
X6413D01*
X6343Y6968D02*
X6413D01*
X7250Y5775D02*
X7630D01*
X7250Y5775D02*
Y7025D01*
X7630D01*
Y5775D02*
Y7025D01*
X2036Y2179D02*
X2896D01*
X1928Y1696D02*
X2036Y2179D01*
X1933Y1696D02*
X2999D01*
X2896Y2179D02*
X3003Y1696D01*
X7250Y2981D02*
X7630D01*
X7250Y2981D02*
Y4231D01*
X7630D01*
Y2981D02*
Y4231D01*
X7250Y1584D02*
X7630D01*
X7250Y1584D02*
Y2834D01*
X7630D01*
Y1584D02*
Y2834D01*
X7250Y4378D02*
X7630D01*
X7250Y4378D02*
Y5628D01*
X7630D01*
Y4378D02*
Y5628D01*
X4006Y6748D02*
Y7128D01*
X4006Y7128D02*
X5256D01*
Y6748D02*
Y7128D01*
X4006Y6748D02*
X5256D01*
X1388Y7118D02*
X2268D01*
Y6998D02*
Y7118D01*
X1388Y6998D02*
Y7118D01*
X2268Y6648D02*
Y6768D01*
X1388Y6648D02*
X2268D01*
X1388D02*
Y6768D01*
X2533Y6748D02*
Y7128D01*
X2533Y7128D02*
X3783D01*
Y6748D02*
Y7128D01*
X2533Y6748D02*
X3783D01*
X1283Y1066D02*
Y2082D01*
X183Y1066D02*
Y2082D01*
X1283D01*
X183Y1066D02*
X1283D01*
Y2082D02*
Y3098D01*
X183Y2082D02*
Y3098D01*
X1283D01*
X183Y2082D02*
X1283D01*
X183Y3098D02*
X1283D01*
X183Y4114D02*
X1283D01*
X183Y3098D02*
Y4114D01*
X1283Y3098D02*
Y4114D01*
X183D02*
X1283D01*
X183Y5130D02*
X1283D01*
X183Y4114D02*
Y5130D01*
X1283Y4114D02*
Y5130D01*
X1397Y5522D02*
Y5540D01*
Y5735D02*
Y6262D01*
X1707D01*
Y5522D02*
Y6049D01*
Y6244D02*
Y6262D01*
X1397Y5522D02*
X1707D01*
X3473Y950D02*
X4253D01*
X3473Y420D02*
X4253D01*
Y749D02*
Y950D01*
Y420D02*
Y622D01*
X3473Y420D02*
Y950D01*
Y2347D02*
X4253D01*
X3473Y1817D02*
X4253D01*
Y2145D02*
Y2347D01*
Y1817D02*
Y2018D01*
X3473Y1817D02*
Y2347D01*
X7250Y187D02*
X7630D01*
X7250Y187D02*
Y1437D01*
X7630D01*
Y187D02*
Y1437D01*
X5779Y312D02*
Y3852D01*
X5249Y312D02*
Y3852D01*
X5578Y312D02*
X5779D01*
X5249D02*
X5451D01*
X5249Y3852D02*
X5779D01*
X5707Y5707D02*
Y6230D01*
X4407D02*
X5707D01*
X4407Y5707D02*
X5707D01*
X4407D02*
Y6230D01*
X4335Y5707D02*
Y6230D01*
X3543D02*
X4335D01*
X3543Y5707D02*
X4335D01*
X3543D02*
Y6230D01*
X5942Y4147D02*
Y5117D01*
X6407Y4147D02*
Y5117D01*
X6024Y4065D02*
X6324D01*
X6024Y5199D02*
X6324D01*
X6024Y5199D02*
X6024Y5199D01*
X2036Y5227D02*
X2896D01*
X1928Y4744D02*
X2036Y5227D01*
X1933Y4744D02*
X2999D01*
X2896Y5227D02*
X3003Y4744D01*
X2036Y3703D02*
X2896D01*
X1928Y3220D02*
X2036Y3703D01*
X1933Y3220D02*
X2999D01*
X2896Y3703D02*
X3003Y3220D01*
X3473Y3744D02*
X4253D01*
X3473Y3214D02*
X4253D01*
Y3542D02*
Y3744D01*
Y3214D02*
Y3415D01*
X3473Y3214D02*
Y3744D01*
Y5141D02*
X4253D01*
X3473Y4611D02*
X4253D01*
Y4940D02*
Y5141D01*
Y4611D02*
Y4812D01*
X3473Y4611D02*
Y5141D01*
X1283Y50D02*
Y1066D01*
X183Y50D02*
Y1066D01*
X1283D01*
X183Y50D02*
X1283D01*
X2036Y655D02*
X2896D01*
X1928Y172D02*
X2036Y655D01*
X1933Y172D02*
X2999D01*
X2896Y655D02*
X3003Y172D01*
X6844Y6338D02*
Y6462D01*
X6674Y6338D02*
Y6462D01*
X6844Y4940D02*
Y5065D01*
X6674Y4940D02*
Y5065D01*
X6844Y3544D02*
Y3669D01*
X6674Y3544D02*
Y3669D01*
X1492Y4560D02*
Y4685D01*
X1662Y4560D02*
Y4685D01*
X6844Y749D02*
Y874D01*
X6674Y749D02*
Y874D01*
X6844Y2147D02*
Y2272D01*
X6674Y2147D02*
Y2272D01*
X5756Y6968D02*
X5881D01*
X5756Y6798D02*
X5881D01*
X1492Y1511D02*
Y1636D01*
X1662Y1511D02*
Y1636D01*
Y495D02*
Y620D01*
X1492Y495D02*
Y620D01*
X1662Y2527D02*
Y2652D01*
X1492Y2527D02*
Y2652D01*
X398Y7121D02*
X1028D01*
Y6491D02*
Y6499D01*
Y7114D02*
Y7121D01*
X398Y6491D02*
X1028D01*
X398D02*
Y6499D01*
Y6714D02*
Y6899D01*
Y7114D02*
Y7121D01*
X1492Y3544D02*
Y3669D01*
X1662Y3544D02*
Y3669D01*
X4437Y1268D02*
X4457D01*
X4437Y1373D02*
X4457D01*
X1959Y834D02*
X2059D01*
X1959Y994D02*
X2059D01*
X1959Y1240D02*
X2059D01*
X1959Y1400D02*
X2059D01*
X1959Y2713D02*
X2059D01*
X1959Y2873D02*
X2059D01*
X1959Y3907D02*
X2059D01*
X1959Y4067D02*
X2059D01*
X4437Y4036D02*
X4457D01*
X4437Y4141D02*
X4457D01*
X4437Y2665D02*
X4457D01*
X4437Y2769D02*
X4457D01*
D12*
X4183Y850D02*
G03*
X4183Y850I-30J0D01*
G01*
Y2247D02*
G03*
X4183Y2247I-30J0D01*
G01*
X5709Y412D02*
G03*
X5709Y412I-30J0D01*
G01*
X4183Y3644D02*
G03*
X4183Y3644I-30J0D01*
G01*
Y5041D02*
G03*
X4183Y5041I-30J0D01*
G01*
D13*
X237Y5393D02*
Y6393D01*
X1237D01*
Y5393D02*
Y6393D01*
X237Y5393D02*
X1237D01*
X137Y6481D02*
Y6634D01*
X213D01*
X238Y6608D01*
Y6557D01*
X213Y6532D01*
X137D01*
X289Y6481D02*
X340D01*
X315D01*
Y6634D01*
X289Y6608D01*
X5956Y5519D02*
Y5493D01*
X6007Y5442D01*
X6058Y5493D01*
Y5519D01*
X6007Y5442D02*
Y5366D01*
X6108D02*
X6159D01*
X6134D01*
Y5519D01*
X6108Y5493D01*
X3472Y1401D02*
Y1274D01*
X3497Y1249D01*
X3548D01*
X3573Y1274D01*
Y1401D01*
X3700Y1249D02*
Y1401D01*
X3624Y1325D01*
X3726D01*
X3472Y2798D02*
Y2671D01*
X3497Y2646D01*
X3548D01*
X3573Y2671D01*
Y2798D01*
X3624Y2773D02*
X3650Y2798D01*
X3700D01*
X3726Y2773D01*
Y2747D01*
X3700Y2722D01*
X3675D01*
X3700D01*
X3726Y2697D01*
Y2671D01*
X3700Y2646D01*
X3650D01*
X3624Y2671D01*
X3472Y4195D02*
Y4068D01*
X3497Y4043D01*
X3548D01*
X3573Y4068D01*
Y4195D01*
X3726Y4043D02*
X3624D01*
X3726Y4144D01*
Y4170D01*
X3700Y4195D01*
X3650D01*
X3624Y4170D01*
X3472Y5592D02*
Y5465D01*
X3497Y5440D01*
X3548D01*
X3573Y5465D01*
Y5592D01*
X3624Y5440D02*
X3675D01*
X3650D01*
Y5592D01*
X3624Y5567D01*
X345Y7370D02*
X320Y7396D01*
X269D01*
X243Y7370D01*
Y7345D01*
X269Y7319D01*
X320D01*
X345Y7294D01*
Y7269D01*
X320Y7243D01*
X269D01*
X243Y7269D01*
X396Y7396D02*
Y7243D01*
X447Y7294D01*
X497Y7243D01*
Y7396D01*
X548Y7218D02*
X650D01*
X701Y7243D02*
Y7396D01*
X777D01*
X802Y7370D01*
Y7319D01*
X777Y7294D01*
X701D01*
X751D02*
X802Y7243D01*
X954Y7396D02*
X853D01*
Y7243D01*
X954D01*
X853Y7319D02*
X904D01*
X1107Y7370D02*
X1081Y7396D01*
X1031D01*
X1005Y7370D01*
Y7345D01*
X1031Y7319D01*
X1081D01*
X1107Y7294D01*
Y7269D01*
X1081Y7243D01*
X1031D01*
X1005Y7269D01*
X1259Y7396D02*
X1158D01*
Y7243D01*
X1259D01*
X1158Y7319D02*
X1208D01*
X1310Y7396D02*
X1412D01*
X1361D01*
Y7243D01*
X1458Y7398D02*
X1432Y7424D01*
X1381D01*
X1356Y7398D01*
Y7373D01*
X1381Y7347D01*
X1432D01*
X1458Y7322D01*
Y7297D01*
X1432Y7271D01*
X1381D01*
X1356Y7297D01*
X1508Y7424D02*
Y7271D01*
X1559Y7322D01*
X1610Y7271D01*
Y7424D01*
X1661Y7271D02*
X1712D01*
X1686D01*
Y7424D01*
X1661Y7398D01*
X1801Y1132D02*
Y1284D01*
X1877D01*
X1902Y1259D01*
Y1208D01*
X1877Y1183D01*
X1801D01*
X1851D02*
X1902Y1132D01*
X1953Y1107D02*
X2054D01*
X2105Y1284D02*
Y1132D01*
X2207D01*
X2359Y1284D02*
X2258D01*
Y1132D01*
X2359D01*
X2258Y1208D02*
X2308D01*
X2410Y1284D02*
Y1132D01*
X2486D01*
X2511Y1157D01*
Y1259D01*
X2486Y1284D01*
X2410D01*
X2562Y1107D02*
X2664D01*
X2791Y1284D02*
X2740D01*
X2715Y1259D01*
Y1157D01*
X2740Y1132D01*
X2791D01*
X2816Y1157D01*
Y1259D01*
X2791Y1284D01*
X2867D02*
Y1157D01*
X2892Y1132D01*
X2943D01*
X2969Y1157D01*
Y1284D01*
X3019D02*
X3121D01*
X3070D01*
Y1132D01*
X3248D02*
Y1284D01*
X3172Y1208D01*
X3273D01*
X1801Y1538D02*
Y1691D01*
X1877D01*
X1902Y1665D01*
Y1615D01*
X1877Y1589D01*
X1801D01*
X1851D02*
X1902Y1538D01*
X1953Y1513D02*
X2054D01*
X2105Y1691D02*
Y1538D01*
X2207D01*
X2359Y1691D02*
X2258D01*
Y1538D01*
X2359D01*
X2258Y1615D02*
X2308D01*
X2410Y1691D02*
Y1538D01*
X2486D01*
X2511Y1564D01*
Y1665D01*
X2486Y1691D01*
X2410D01*
X2562Y1513D02*
X2664D01*
X2791Y1691D02*
X2740D01*
X2715Y1665D01*
Y1564D01*
X2740Y1538D01*
X2791D01*
X2816Y1564D01*
Y1665D01*
X2791Y1691D01*
X2867D02*
Y1564D01*
X2892Y1538D01*
X2943D01*
X2969Y1564D01*
Y1691D01*
X3019D02*
X3121D01*
X3070D01*
Y1538D01*
X3172Y1665D02*
X3197Y1691D01*
X3248D01*
X3273Y1665D01*
Y1640D01*
X3248Y1615D01*
X3222D01*
X3248D01*
X3273Y1589D01*
Y1564D01*
X3248Y1538D01*
X3197D01*
X3172Y1564D01*
X1801Y3012D02*
Y3164D01*
X1877D01*
X1902Y3139D01*
Y3088D01*
X1877Y3062D01*
X1801D01*
X1851D02*
X1902Y3012D01*
X1953Y2986D02*
X2054D01*
X2105Y3164D02*
Y3012D01*
X2207D01*
X2359Y3164D02*
X2258D01*
Y3012D01*
X2359D01*
X2258Y3088D02*
X2308D01*
X2410Y3164D02*
Y3012D01*
X2486D01*
X2511Y3037D01*
Y3139D01*
X2486Y3164D01*
X2410D01*
X2562Y2986D02*
X2664D01*
X2791Y3164D02*
X2740D01*
X2715Y3139D01*
Y3037D01*
X2740Y3012D01*
X2791D01*
X2816Y3037D01*
Y3139D01*
X2791Y3164D01*
X2867D02*
Y3037D01*
X2892Y3012D01*
X2943D01*
X2969Y3037D01*
Y3164D01*
X3019D02*
X3121D01*
X3070D01*
Y3012D01*
X3273D02*
X3172D01*
X3273Y3113D01*
Y3139D01*
X3248Y3164D01*
X3197D01*
X3172Y3139D01*
X1801Y4205D02*
Y4358D01*
X1877D01*
X1902Y4332D01*
Y4282D01*
X1877Y4256D01*
X1801D01*
X1851D02*
X1902Y4205D01*
X1953Y4180D02*
X2054D01*
X2105Y4358D02*
Y4205D01*
X2207D01*
X2359Y4358D02*
X2258D01*
Y4205D01*
X2359D01*
X2258Y4282D02*
X2308D01*
X2410Y4358D02*
Y4205D01*
X2486D01*
X2511Y4231D01*
Y4332D01*
X2486Y4358D01*
X2410D01*
X2562Y4180D02*
X2664D01*
X2791Y4358D02*
X2740D01*
X2715Y4332D01*
Y4231D01*
X2740Y4205D01*
X2791D01*
X2816Y4231D01*
Y4332D01*
X2791Y4358D01*
X2867D02*
Y4231D01*
X2892Y4205D01*
X2943D01*
X2969Y4231D01*
Y4358D01*
X3019D02*
X3121D01*
X3070D01*
Y4205D01*
X3172D02*
X3222D01*
X3197D01*
Y4358D01*
X3172Y4332D01*
X1455Y5559D02*
Y5712D01*
X1531D01*
X1557Y5686D01*
Y5635D01*
X1531Y5610D01*
X1455D01*
X1506D02*
X1557Y5559D01*
X1607Y5534D02*
X1709D01*
X1760Y5712D02*
Y5559D01*
X1861D01*
X2014Y5712D02*
X1912D01*
Y5559D01*
X2014D01*
X1912Y5635D02*
X1963D01*
X2064Y5712D02*
Y5559D01*
X2141D01*
X2166Y5585D01*
Y5686D01*
X2141Y5712D01*
X2064D01*
X2217Y5534D02*
X2318D01*
X2445Y5712D02*
X2395D01*
X2369Y5686D01*
Y5585D01*
X2395Y5559D01*
X2445D01*
X2471Y5585D01*
Y5686D01*
X2445Y5712D01*
X2522Y5559D02*
Y5712D01*
X2623Y5559D01*
Y5712D01*
X6126Y7132D02*
Y7284D01*
X6202D01*
X6228Y7258D01*
Y7208D01*
X6202Y7182D01*
X6126D01*
X6177D02*
X6228Y7132D01*
X6278Y7106D02*
X6380D01*
X6431Y7284D02*
Y7132D01*
X6532D01*
X6685Y7284D02*
X6583D01*
Y7132D01*
X6685D01*
X6583Y7208D02*
X6634D01*
X6736Y7284D02*
Y7132D01*
X6812D01*
X6837Y7157D01*
Y7258D01*
X6812Y7284D01*
X6736D01*
X6888Y7106D02*
X6989D01*
X7040Y7284D02*
Y7132D01*
X7116D01*
X7142Y7157D01*
Y7182D01*
X7116Y7208D01*
X7040D01*
X7116D01*
X7142Y7233D01*
Y7258D01*
X7116Y7284D01*
X7040D01*
X7193D02*
Y7157D01*
X7218Y7132D01*
X7269D01*
X7294Y7157D01*
Y7284D01*
X7345D02*
X7396D01*
X7370D01*
Y7132D01*
X7345D01*
X7396D01*
X7472Y7284D02*
Y7132D01*
X7573D01*
X7624Y7284D02*
X7726D01*
X7675D01*
Y7132D01*
X7777Y7284D02*
X7827D01*
X7802D01*
Y7132D01*
X7777D01*
X7827D01*
X7904D02*
Y7284D01*
X8005Y7132D01*
Y7284D01*
X4341Y1477D02*
Y1630D01*
X4417D01*
X4442Y1604D01*
Y1554D01*
X4417Y1528D01*
X4341D01*
X4391D02*
X4442Y1477D01*
X4569D02*
Y1630D01*
X4493Y1554D01*
X4594D01*
X4645Y1604D02*
X4671Y1630D01*
X4721D01*
X4747Y1604D01*
Y1503D01*
X4721Y1477D01*
X4671D01*
X4645Y1503D01*
Y1604D01*
X4899Y1477D02*
X4798D01*
X4899Y1579D01*
Y1604D01*
X4874Y1630D01*
X4823D01*
X4798Y1604D01*
X4341Y2874D02*
Y3027D01*
X4417D01*
X4442Y3001D01*
Y2951D01*
X4417Y2925D01*
X4341D01*
X4391D02*
X4442Y2874D01*
X4493Y3001D02*
X4518Y3027D01*
X4569D01*
X4594Y3001D01*
Y2976D01*
X4569Y2951D01*
X4544D01*
X4569D01*
X4594Y2925D01*
Y2900D01*
X4569Y2874D01*
X4518D01*
X4493Y2900D01*
X4645Y3001D02*
X4671Y3027D01*
X4721D01*
X4747Y3001D01*
Y2900D01*
X4721Y2874D01*
X4671D01*
X4645Y2900D01*
Y3001D01*
X4899Y2874D02*
X4798D01*
X4899Y2976D01*
Y3001D01*
X4874Y3027D01*
X4823D01*
X4798Y3001D01*
X4341Y4246D02*
Y4398D01*
X4417D01*
X4442Y4373D01*
Y4322D01*
X4417Y4297D01*
X4341D01*
X4391D02*
X4442Y4246D01*
X4594D02*
X4493D01*
X4594Y4348D01*
Y4373D01*
X4569Y4398D01*
X4518D01*
X4493Y4373D01*
X4645D02*
X4671Y4398D01*
X4721D01*
X4747Y4373D01*
Y4271D01*
X4721Y4246D01*
X4671D01*
X4645Y4271D01*
Y4373D01*
X4899Y4246D02*
X4798D01*
X4899Y4348D01*
Y4373D01*
X4874Y4398D01*
X4823D01*
X4798Y4373D01*
X2024Y776D02*
Y878D01*
X1999Y903D01*
X1948D01*
X1922Y878D01*
Y776D01*
X1948Y751D01*
X1999D01*
X1973Y802D02*
X2024Y751D01*
X1999D02*
X2024Y776D01*
X2151Y751D02*
Y903D01*
X2075Y827D01*
X2176D01*
X2024Y2300D02*
Y2402D01*
X1999Y2427D01*
X1948D01*
X1922Y2402D01*
Y2300D01*
X1948Y2275D01*
X1999D01*
X1973Y2326D02*
X2024Y2275D01*
X1999D02*
X2024Y2300D01*
X2075Y2402D02*
X2100Y2427D01*
X2151D01*
X2176Y2402D01*
Y2377D01*
X2151Y2351D01*
X2126D01*
X2151D01*
X2176Y2326D01*
Y2300D01*
X2151Y2275D01*
X2100D01*
X2075Y2300D01*
X2024Y3824D02*
Y3926D01*
X1999Y3951D01*
X1948D01*
X1922Y3926D01*
Y3824D01*
X1948Y3799D01*
X1999D01*
X1973Y3850D02*
X2024Y3799D01*
X1999D02*
X2024Y3824D01*
X2176Y3799D02*
X2075D01*
X2176Y3901D01*
Y3926D01*
X2151Y3951D01*
X2100D01*
X2075Y3926D01*
X2024Y5348D02*
Y5450D01*
X1999Y5475D01*
X1948D01*
X1922Y5450D01*
Y5348D01*
X1948Y5323D01*
X1999D01*
X1973Y5374D02*
X2024Y5323D01*
X1999D02*
X2024Y5348D01*
X2075Y5323D02*
X2126D01*
X2100D01*
Y5475D01*
X2075Y5450D01*
X2545Y7243D02*
Y7396D01*
X2621D01*
X2646Y7370D01*
Y7319D01*
X2621Y7294D01*
X2545D01*
X2697Y7218D02*
X2799D01*
X2849Y7396D02*
Y7269D01*
X2875Y7243D01*
X2926D01*
X2951Y7269D01*
Y7396D01*
X3103Y7370D02*
X3078Y7396D01*
X3027D01*
X3002Y7370D01*
Y7345D01*
X3027Y7319D01*
X3078D01*
X3103Y7294D01*
Y7269D01*
X3078Y7243D01*
X3027D01*
X3002Y7269D01*
X3154Y7396D02*
Y7243D01*
X3230D01*
X3256Y7269D01*
Y7294D01*
X3230Y7319D01*
X3154D01*
X3230D01*
X3256Y7345D01*
Y7370D01*
X3230Y7396D01*
X3154D01*
X7262Y7139D02*
Y7291D01*
X7338D01*
X7363Y7266D01*
Y7215D01*
X7338Y7190D01*
X7262D01*
X7414Y7114D02*
X7515D01*
X7668Y7266D02*
X7642Y7291D01*
X7592D01*
X7566Y7266D01*
Y7241D01*
X7592Y7215D01*
X7642D01*
X7668Y7190D01*
Y7165D01*
X7642Y7139D01*
X7592D01*
X7566Y7165D01*
X7820Y7291D02*
X7719D01*
Y7139D01*
X7820D01*
X7719Y7215D02*
X7769D01*
X7871Y7139D02*
Y7291D01*
X7972Y7139D01*
Y7291D01*
X8125D02*
X8023D01*
Y7215D01*
X8074Y7241D01*
X8099D01*
X8125Y7215D01*
Y7165D01*
X8099Y7139D01*
X8049D01*
X8023Y7165D01*
X7262Y5742D02*
Y5894D01*
X7338D01*
X7363Y5869D01*
Y5818D01*
X7338Y5793D01*
X7262D01*
X7414Y5717D02*
X7515D01*
X7668Y5869D02*
X7642Y5894D01*
X7592D01*
X7566Y5869D01*
Y5844D01*
X7592Y5818D01*
X7642D01*
X7668Y5793D01*
Y5768D01*
X7642Y5742D01*
X7592D01*
X7566Y5768D01*
X7820Y5894D02*
X7719D01*
Y5742D01*
X7820D01*
X7719Y5818D02*
X7769D01*
X7871Y5742D02*
Y5894D01*
X7972Y5742D01*
Y5894D01*
X8099Y5742D02*
Y5894D01*
X8023Y5818D01*
X8125D01*
X7262Y4345D02*
Y4497D01*
X7338D01*
X7363Y4472D01*
Y4421D01*
X7338Y4396D01*
X7262D01*
X7414Y4320D02*
X7515D01*
X7668Y4472D02*
X7642Y4497D01*
X7592D01*
X7566Y4472D01*
Y4447D01*
X7592Y4421D01*
X7642D01*
X7668Y4396D01*
Y4371D01*
X7642Y4345D01*
X7592D01*
X7566Y4371D01*
X7820Y4497D02*
X7719D01*
Y4345D01*
X7820D01*
X7719Y4421D02*
X7769D01*
X7871Y4345D02*
Y4497D01*
X7972Y4345D01*
Y4497D01*
X8023Y4472D02*
X8049Y4497D01*
X8099D01*
X8125Y4472D01*
Y4447D01*
X8099Y4421D01*
X8074D01*
X8099D01*
X8125Y4396D01*
Y4371D01*
X8099Y4345D01*
X8049D01*
X8023Y4371D01*
X7262Y2948D02*
Y3100D01*
X7338D01*
X7363Y3075D01*
Y3024D01*
X7338Y2999D01*
X7262D01*
X7414Y2923D02*
X7515D01*
X7668Y3075D02*
X7642Y3100D01*
X7592D01*
X7566Y3075D01*
Y3050D01*
X7592Y3024D01*
X7642D01*
X7668Y2999D01*
Y2974D01*
X7642Y2948D01*
X7592D01*
X7566Y2974D01*
X7820Y3100D02*
X7719D01*
Y2948D01*
X7820D01*
X7719Y3024D02*
X7769D01*
X7871Y2948D02*
Y3100D01*
X7972Y2948D01*
Y3100D01*
X8125Y2948D02*
X8023D01*
X8125Y3050D01*
Y3075D01*
X8099Y3100D01*
X8049D01*
X8023Y3075D01*
X7262Y1551D02*
Y1703D01*
X7338D01*
X7363Y1678D01*
Y1627D01*
X7338Y1602D01*
X7262D01*
X7414Y1526D02*
X7515D01*
X7668Y1678D02*
X7642Y1703D01*
X7592D01*
X7566Y1678D01*
Y1653D01*
X7592Y1627D01*
X7642D01*
X7668Y1602D01*
Y1577D01*
X7642Y1551D01*
X7592D01*
X7566Y1577D01*
X7820Y1703D02*
X7719D01*
Y1551D01*
X7820D01*
X7719Y1627D02*
X7769D01*
X7871Y1551D02*
Y1703D01*
X7972Y1551D01*
Y1703D01*
X8023Y1551D02*
X8074D01*
X8049D01*
Y1703D01*
X8023Y1678D01*
X4018Y7243D02*
Y7396D01*
X4094D01*
X4120Y7370D01*
Y7319D01*
X4094Y7294D01*
X4018D01*
X4170Y7218D02*
X4272D01*
X4323Y7396D02*
X4373D01*
X4348D01*
Y7243D01*
X4323D01*
X4373D01*
X4551D02*
X4450D01*
X4551Y7345D01*
Y7370D01*
X4526Y7396D01*
X4475D01*
X4450Y7370D01*
X4704D02*
X4678Y7396D01*
X4627D01*
X4602Y7370D01*
Y7269D01*
X4627Y7243D01*
X4678D01*
X4704Y7269D01*
X4315Y6354D02*
Y6507D01*
X4391D01*
X4417Y6481D01*
Y6430D01*
X4391Y6405D01*
X4315D01*
X4467Y6329D02*
X4569D01*
X4721Y6507D02*
X4620D01*
Y6354D01*
X4721D01*
X4620Y6430D02*
X4671D01*
X4772Y6507D02*
X4874Y6354D01*
Y6507D02*
X4772Y6354D01*
X4925D02*
Y6507D01*
X5001D01*
X5026Y6481D01*
Y6430D01*
X5001Y6405D01*
X4925D01*
X3454Y6354D02*
Y6507D01*
X3530D01*
X3556Y6481D01*
Y6430D01*
X3530Y6405D01*
X3454D01*
X3606Y6329D02*
X3708D01*
X3860Y6507D02*
X3759D01*
Y6354D01*
X3860D01*
X3759Y6430D02*
X3810D01*
X3911Y6507D02*
X4013Y6354D01*
Y6507D02*
X3911Y6354D01*
X4063D02*
Y6507D01*
X4140D01*
X4165Y6481D01*
Y6430D01*
X4140Y6405D01*
X4063D01*
X4216Y6329D02*
X4317D01*
X4368Y6354D02*
Y6507D01*
X4444D01*
X4470Y6481D01*
Y6430D01*
X4444Y6405D01*
X4368D01*
X4597Y6507D02*
X4546D01*
X4521Y6481D01*
Y6380D01*
X4546Y6354D01*
X4597D01*
X4622Y6380D01*
Y6481D01*
X4597Y6507D01*
X4673D02*
Y6354D01*
X4724Y6405D01*
X4774Y6354D01*
Y6507D01*
X4927D02*
X4825D01*
Y6354D01*
X4927D01*
X4825Y6430D02*
X4876D01*
X4978Y6354D02*
Y6507D01*
X5054D01*
X5079Y6481D01*
Y6430D01*
X5054Y6405D01*
X4978D01*
X5028D02*
X5079Y6354D01*
X6680Y6987D02*
Y6834D01*
X6781D01*
X6934Y6987D02*
X6832D01*
Y6834D01*
X6934D01*
X6832Y6911D02*
X6883D01*
X6985Y6987D02*
Y6834D01*
X7061D01*
X7086Y6860D01*
Y6961D01*
X7061Y6987D01*
X6985D01*
X7137Y6809D02*
X7238D01*
X7391Y6961D02*
X7365Y6987D01*
X7315D01*
X7289Y6961D01*
Y6936D01*
X7315Y6911D01*
X7365D01*
X7391Y6885D01*
Y6860D01*
X7365Y6834D01*
X7315D01*
X7289Y6860D01*
X7543Y6987D02*
X7442D01*
Y6834D01*
X7543D01*
X7442Y6911D02*
X7492D01*
X7594Y6834D02*
Y6987D01*
X7696Y6834D01*
Y6987D01*
X7848D02*
X7746D01*
Y6911D01*
X7797Y6936D01*
X7822D01*
X7848Y6911D01*
Y6860D01*
X7822Y6834D01*
X7772D01*
X7746Y6860D01*
X6680Y5590D02*
Y5437D01*
X6781D01*
X6934Y5590D02*
X6832D01*
Y5437D01*
X6934D01*
X6832Y5514D02*
X6883D01*
X6985Y5590D02*
Y5437D01*
X7061D01*
X7086Y5463D01*
Y5564D01*
X7061Y5590D01*
X6985D01*
X7137Y5412D02*
X7238D01*
X7391Y5564D02*
X7365Y5590D01*
X7315D01*
X7289Y5564D01*
Y5539D01*
X7315Y5514D01*
X7365D01*
X7391Y5488D01*
Y5463D01*
X7365Y5437D01*
X7315D01*
X7289Y5463D01*
X7543Y5590D02*
X7442D01*
Y5437D01*
X7543D01*
X7442Y5514D02*
X7492D01*
X7594Y5437D02*
Y5590D01*
X7696Y5437D01*
Y5590D01*
X7822Y5437D02*
Y5590D01*
X7746Y5514D01*
X7848D01*
X6680Y4193D02*
Y4040D01*
X6781D01*
X6934Y4193D02*
X6832D01*
Y4040D01*
X6934D01*
X6832Y4117D02*
X6883D01*
X6985Y4193D02*
Y4040D01*
X7061D01*
X7086Y4066D01*
Y4167D01*
X7061Y4193D01*
X6985D01*
X7137Y4015D02*
X7238D01*
X7391Y4167D02*
X7365Y4193D01*
X7315D01*
X7289Y4167D01*
Y4142D01*
X7315Y4117D01*
X7365D01*
X7391Y4091D01*
Y4066D01*
X7365Y4040D01*
X7315D01*
X7289Y4066D01*
X7543Y4193D02*
X7442D01*
Y4040D01*
X7543D01*
X7442Y4117D02*
X7492D01*
X7594Y4040D02*
Y4193D01*
X7696Y4040D01*
Y4193D01*
X7746Y4167D02*
X7772Y4193D01*
X7822D01*
X7848Y4167D01*
Y4142D01*
X7822Y4117D01*
X7797D01*
X7822D01*
X7848Y4091D01*
Y4066D01*
X7822Y4040D01*
X7772D01*
X7746Y4066D01*
X6680Y2796D02*
Y2643D01*
X6781D01*
X6934Y2796D02*
X6832D01*
Y2643D01*
X6934D01*
X6832Y2720D02*
X6883D01*
X6985Y2796D02*
Y2643D01*
X7061D01*
X7086Y2669D01*
Y2770D01*
X7061Y2796D01*
X6985D01*
X7137Y2618D02*
X7238D01*
X7391Y2770D02*
X7365Y2796D01*
X7315D01*
X7289Y2770D01*
Y2745D01*
X7315Y2720D01*
X7365D01*
X7391Y2694D01*
Y2669D01*
X7365Y2643D01*
X7315D01*
X7289Y2669D01*
X7543Y2796D02*
X7442D01*
Y2643D01*
X7543D01*
X7442Y2720D02*
X7492D01*
X7594Y2643D02*
Y2796D01*
X7696Y2643D01*
Y2796D01*
X7848Y2643D02*
X7746D01*
X7848Y2745D01*
Y2770D01*
X7822Y2796D01*
X7772D01*
X7746Y2770D01*
X6680Y1399D02*
Y1246D01*
X6781D01*
X6934Y1399D02*
X6832D01*
Y1246D01*
X6934D01*
X6832Y1323D02*
X6883D01*
X6985Y1399D02*
Y1246D01*
X7061D01*
X7086Y1272D01*
Y1373D01*
X7061Y1399D01*
X6985D01*
X7137Y1221D02*
X7238D01*
X7391Y1373D02*
X7365Y1399D01*
X7315D01*
X7289Y1373D01*
Y1348D01*
X7315Y1323D01*
X7365D01*
X7391Y1297D01*
Y1272D01*
X7365Y1246D01*
X7315D01*
X7289Y1272D01*
X7543Y1399D02*
X7442D01*
Y1246D01*
X7543D01*
X7442Y1323D02*
X7492D01*
X7594Y1246D02*
Y1399D01*
X7696Y1246D01*
Y1399D01*
X7746Y1246D02*
X7797D01*
X7772D01*
Y1399D01*
X7746Y1373D01*
X1498Y1145D02*
Y992D01*
X1600D01*
X1752Y1145D02*
X1651D01*
Y992D01*
X1752D01*
X1651Y1069D02*
X1701D01*
X1803Y1145D02*
Y992D01*
X1879D01*
X1905Y1018D01*
Y1119D01*
X1879Y1145D01*
X1803D01*
X1955Y967D02*
X2057D01*
X2184Y1145D02*
X2133D01*
X2108Y1119D01*
Y1018D01*
X2133Y992D01*
X2184D01*
X2209Y1018D01*
Y1119D01*
X2184Y1145D01*
X2260D02*
Y1018D01*
X2285Y992D01*
X2336D01*
X2362Y1018D01*
Y1145D01*
X2412D02*
X2514D01*
X2463D01*
Y992D01*
X2641D02*
Y1145D01*
X2565Y1069D01*
X2666D01*
X1498Y2097D02*
Y1945D01*
X1600D01*
X1752Y2097D02*
X1651D01*
Y1945D01*
X1752D01*
X1651Y2021D02*
X1701D01*
X1803Y2097D02*
Y1945D01*
X1879D01*
X1905Y1970D01*
Y2072D01*
X1879Y2097D01*
X1803D01*
X1955Y1919D02*
X2057D01*
X2184Y2097D02*
X2133D01*
X2108Y2072D01*
Y1970D01*
X2133Y1945D01*
X2184D01*
X2209Y1970D01*
Y2072D01*
X2184Y2097D01*
X2260D02*
Y1970D01*
X2285Y1945D01*
X2336D01*
X2362Y1970D01*
Y2097D01*
X2412D02*
X2514D01*
X2463D01*
Y1945D01*
X2565Y2072D02*
X2590Y2097D01*
X2641D01*
X2666Y2072D01*
Y2046D01*
X2641Y2021D01*
X2615D01*
X2641D01*
X2666Y1996D01*
Y1970D01*
X2641Y1945D01*
X2590D01*
X2565Y1970D01*
X1498Y3177D02*
Y3024D01*
X1600D01*
X1752Y3177D02*
X1651D01*
Y3024D01*
X1752D01*
X1651Y3101D02*
X1701D01*
X1803Y3177D02*
Y3024D01*
X1879D01*
X1905Y3050D01*
Y3151D01*
X1879Y3177D01*
X1803D01*
X1955Y2999D02*
X2057D01*
X2184Y3177D02*
X2133D01*
X2108Y3151D01*
Y3050D01*
X2133Y3024D01*
X2184D01*
X2209Y3050D01*
Y3151D01*
X2184Y3177D01*
X2260D02*
Y3050D01*
X2285Y3024D01*
X2336D01*
X2362Y3050D01*
Y3177D01*
X2412D02*
X2514D01*
X2463D01*
Y3024D01*
X2666D02*
X2565D01*
X2666Y3126D01*
Y3151D01*
X2641Y3177D01*
X2590D01*
X2565Y3151D01*
X1498Y4193D02*
Y4040D01*
X1600D01*
X1752Y4193D02*
X1651D01*
Y4040D01*
X1752D01*
X1651Y4117D02*
X1701D01*
X1803Y4193D02*
Y4040D01*
X1879D01*
X1905Y4066D01*
Y4167D01*
X1879Y4193D01*
X1803D01*
X1955Y4015D02*
X2057D01*
X2184Y4193D02*
X2133D01*
X2108Y4167D01*
Y4066D01*
X2133Y4040D01*
X2184D01*
X2209Y4066D01*
Y4167D01*
X2184Y4193D01*
X2260D02*
Y4066D01*
X2285Y4040D01*
X2336D01*
X2362Y4066D01*
Y4193D01*
X2412D02*
X2514D01*
X2463D01*
Y4040D01*
X2565D02*
X2615D01*
X2590D01*
Y4193D01*
X2565Y4167D01*
X1498Y5145D02*
Y4993D01*
X1600D01*
X1752Y5145D02*
X1651D01*
Y4993D01*
X1752D01*
X1651Y5069D02*
X1701D01*
X1803Y5145D02*
Y4993D01*
X1879D01*
X1905Y5018D01*
Y5120D01*
X1879Y5145D01*
X1803D01*
X1955Y4967D02*
X2057D01*
X2184Y5145D02*
X2133D01*
X2108Y5120D01*
Y5018D01*
X2133Y4993D01*
X2184D01*
X2209Y5018D01*
Y5120D01*
X2184Y5145D01*
X2260Y4993D02*
Y5145D01*
X2362Y4993D01*
Y5145D01*
X5511Y7241D02*
Y7088D01*
X5613D01*
X5765Y7241D02*
X5664D01*
Y7088D01*
X5765D01*
X5664Y7165D02*
X5715D01*
X5816Y7241D02*
Y7088D01*
X5892D01*
X5918Y7114D01*
Y7215D01*
X5892Y7241D01*
X5816D01*
X5969Y7063D02*
X6070D01*
X6121Y7241D02*
Y7088D01*
X6197D01*
X6222Y7114D01*
Y7139D01*
X6197Y7165D01*
X6121D01*
X6197D01*
X6222Y7190D01*
Y7215D01*
X6197Y7241D01*
X6121D01*
X6273D02*
Y7114D01*
X6299Y7088D01*
X6349D01*
X6375Y7114D01*
Y7241D01*
X6426D02*
X6476D01*
X6451D01*
Y7088D01*
X6426D01*
X6476D01*
X6553Y7241D02*
Y7088D01*
X6654D01*
X6705Y7241D02*
X6806D01*
X6756D01*
Y7088D01*
X6857Y7241D02*
X6908D01*
X6883D01*
Y7088D01*
X6857D01*
X6908D01*
X6984D02*
Y7241D01*
X7086Y7088D01*
Y7241D01*
X299Y1363D02*
X249D01*
X274D01*
Y1236D01*
X249Y1211D01*
X223D01*
X198Y1236D01*
X426Y1363D02*
X376D01*
X350Y1338D01*
Y1236D01*
X376Y1211D01*
X426D01*
X452Y1236D01*
Y1338D01*
X426Y1363D01*
X579Y1211D02*
Y1363D01*
X502Y1287D01*
X604D01*
X299Y2379D02*
X249D01*
X274D01*
Y2252D01*
X249Y2227D01*
X223D01*
X198Y2252D01*
X426Y2379D02*
X376D01*
X350Y2354D01*
Y2252D01*
X376Y2227D01*
X426D01*
X452Y2252D01*
Y2354D01*
X426Y2379D01*
X502Y2354D02*
X528Y2379D01*
X579D01*
X604Y2354D01*
Y2328D01*
X579Y2303D01*
X553D01*
X579D01*
X604Y2278D01*
Y2252D01*
X579Y2227D01*
X528D01*
X502Y2252D01*
X299Y3395D02*
X249D01*
X274D01*
Y3268D01*
X249Y3243D01*
X223D01*
X198Y3268D01*
X426Y3395D02*
X376D01*
X350Y3370D01*
Y3268D01*
X376Y3243D01*
X426D01*
X452Y3268D01*
Y3370D01*
X426Y3395D01*
X604Y3243D02*
X502D01*
X604Y3344D01*
Y3370D01*
X579Y3395D01*
X528D01*
X502Y3370D01*
X299Y4411D02*
X249D01*
X274D01*
Y4284D01*
X249Y4259D01*
X223D01*
X198Y4284D01*
X426Y4411D02*
X376D01*
X350Y4386D01*
Y4284D01*
X376Y4259D01*
X426D01*
X452Y4284D01*
Y4386D01*
X426Y4411D01*
X502Y4259D02*
X553D01*
X528D01*
Y4411D01*
X502Y4386D01*
X299Y5427D02*
X249D01*
X274D01*
Y5300D01*
X249Y5275D01*
X223D01*
X198Y5300D01*
X350Y5427D02*
X401D01*
X376D01*
Y5275D01*
X350D01*
X401D01*
X477D02*
Y5427D01*
X579Y5275D01*
Y5427D01*
X1503Y6512D02*
X1402D01*
Y6436D01*
X1453D01*
X1402D01*
Y6359D01*
X1554D02*
X1605D01*
X1579D01*
Y6512D01*
X1554Y6486D01*
X5174Y4066D02*
X5148Y4091D01*
X5097D01*
X5072Y4066D01*
Y3964D01*
X5097Y3939D01*
X5148D01*
X5174Y3964D01*
X5224Y3939D02*
Y4091D01*
X5301D01*
X5326Y4066D01*
Y4015D01*
X5301Y3990D01*
X5224D01*
X5377Y4091D02*
Y3964D01*
X5402Y3939D01*
X5453D01*
X5478Y3964D01*
Y4091D01*
X5529Y3939D02*
X5580D01*
X5554D01*
Y4091D01*
X5529Y4066D01*
X0Y0D02*
X7800D01*
X0D02*
Y7200D01*
X7800D01*
Y0D02*
Y7200D01*
D14*
X4374Y6058D02*
X4306D01*
X4374Y6126D01*
Y6143D01*
X4357Y6160D01*
X4323D01*
X4306Y6143D01*
X4336Y5788D02*
X4370D01*
X4353D01*
Y5890D01*
X4336Y5873D01*
X5738Y5805D02*
X5755Y5788D01*
X5789D01*
X5806Y5805D01*
Y5873D01*
X5789Y5890D01*
X5755D01*
X5738Y5873D01*
Y5856D01*
X5755Y5839D01*
X5806D01*
X5738Y6058D02*
X5772D01*
X5755D01*
Y6160D01*
X5738Y6143D01*
X5822D02*
X5839Y6160D01*
X5873D01*
X5890Y6143D01*
Y6075D01*
X5873Y6058D01*
X5839D01*
X5822Y6075D01*
Y6143D01*
X4406Y6148D02*
X4372D01*
X4389D01*
Y6047D01*
X4406Y6064D01*
X4368Y5878D02*
X4436D01*
X4368Y5810D01*
Y5794D01*
X4385Y5777D01*
X4419D01*
X4436Y5794D01*
X3444Y6047D02*
X3512D01*
Y6097D01*
X3478Y6080D01*
X3461D01*
X3444Y6097D01*
Y6131D01*
X3461Y6148D01*
X3495D01*
X3512Y6131D01*
X3444Y5777D02*
X3478Y5794D01*
X3512Y5827D01*
Y5861D01*
X3495Y5878D01*
X3461D01*
X3444Y5861D01*
Y5844D01*
X3461Y5827D01*
X3512D01*
M02*
