G04*
G04 #@! TF.GenerationSoftware,Altium Limited,Altium Designer,22.5.1 (42)*
G04*
G04 Layer_Physical_Order=2*
G04 Layer_Color=16711680*
%FSLAX42Y42*%
%MOMM*%
G71*
G04*
G04 #@! TF.SameCoordinates,E9C7B45F-A4FB-49F3-BE10-4E13B05C86B2*
G04*
G04*
G04 #@! TF.FilePolarity,Positive*
G04*
G01*
G75*
%ADD13C,0.25*%
%ADD17R,1.50X1.50*%
%ADD18R,1.50X1.50*%
%ADD24R,2.00X2.00*%
%ADD25C,2.00*%
%ADD27R,1.30X1.30*%
%ADD28C,1.30*%
%ADD29C,1.55*%
%ADD33R,1.20X1.20*%
%ADD34C,1.20*%
%ADD42R,1.90X1.50*%
%ADD44R,0.80X1.25*%
%ADD46C,0.51*%
%ADD47C,1.02*%
%ADD48C,0.76*%
%ADD49C,1.40*%
%ADD50R,1.40X1.40*%
%ADD51R,1.40X1.40*%
%ADD52R,1.80X1.80*%
%ADD53C,1.80*%
%ADD54C,1.52*%
%ADD55C,1.50*%
%ADD56C,1.65*%
%ADD57R,1.65X1.65*%
%ADD58C,1.10*%
%ADD59C,1.00*%
%ADD60C,1.27*%
%ADD61R,0.95X1.35*%
%ADD62R,1.25X1.80*%
%ADD63R,0.85X1.60*%
%ADD64R,1.25X0.80*%
%ADD65R,1.60X1.25*%
%ADD66R,2.00X1.50*%
%ADD67R,2.00X3.80*%
%ADD68R,1.80X1.25*%
%ADD69C,2.03*%
%ADD70C,3.81*%
%ADD71C,0.46*%
%ADD72C,2.54*%
D13*
X0Y0D02*
X7800D01*
X0D02*
Y7200D01*
X7800D01*
Y0D02*
Y7200D01*
D17*
X4117Y1066D02*
D03*
Y2463D02*
D03*
Y3860D02*
D03*
Y5257D02*
D03*
D18*
X5895Y431D02*
D03*
D24*
X2720Y1998D02*
D03*
Y5046D02*
D03*
Y3522D02*
D03*
Y474D02*
D03*
D25*
X2466Y1998D02*
D03*
X2212D02*
D03*
X2466Y5046D02*
D03*
X2212D02*
D03*
X2466Y3522D02*
D03*
X2212D02*
D03*
X2466Y474D02*
D03*
X2212D02*
D03*
D27*
X1628Y6883D02*
D03*
D28*
X1828D02*
D03*
X2028D02*
D03*
D29*
X1428D02*
D03*
X2228D02*
D03*
D33*
X1492Y5637D02*
D03*
X6174Y4876D02*
D03*
D34*
X1612Y6147D02*
D03*
X6174Y4388D02*
D03*
D42*
X7087Y460D02*
D03*
Y760D02*
D03*
Y1857D02*
D03*
Y2157D02*
D03*
X7087Y3256D02*
D03*
Y3556D02*
D03*
X7087Y6048D02*
D03*
Y6348D02*
D03*
Y4651D02*
D03*
Y4951D02*
D03*
X6759Y7033D02*
D03*
Y6733D02*
D03*
Y5636D02*
D03*
Y5336D02*
D03*
Y4239D02*
D03*
Y3939D02*
D03*
Y2842D02*
D03*
Y2542D02*
D03*
Y1445D02*
D03*
Y1145D02*
D03*
D44*
X4527Y5257D02*
D03*
X4367D02*
D03*
D46*
X6409Y6595D02*
X6494Y6680D01*
X5719Y5941D02*
X6373Y6595D01*
X6494Y6680D02*
X6502D01*
X6373Y6595D02*
X6409D01*
X7136Y509D02*
X7189D01*
X7361Y681D01*
X7087Y460D02*
X7136Y509D01*
X6825Y323D02*
X6930D01*
X6767Y380D02*
X6825Y323D01*
X6918Y354D02*
X6961Y311D01*
X7255Y407D02*
X7285Y437D01*
X6918Y354D02*
Y865D01*
X7285Y437D02*
X7470D01*
X6961Y908D02*
X6982D01*
X6759Y380D02*
X6767D01*
X6918Y865D02*
X6961Y908D01*
X6982D02*
X7024Y951D01*
X7255Y354D02*
Y407D01*
X6961Y311D02*
X7212D01*
X7255Y354D01*
X6872Y6639D02*
X6891D01*
X6901Y6629D01*
X6774Y6738D02*
X6872Y6639D01*
X6774Y6738D02*
Y6778D01*
Y5341D02*
X6872Y5242D01*
X6891D02*
X6901Y5232D01*
X6872Y5242D02*
X6891D01*
X6774Y5341D02*
Y5381D01*
X6876Y5915D02*
X6898Y5893D01*
X6826Y5915D02*
X6876D01*
X6759Y5968D02*
X6772D01*
X6782Y5614D02*
Y5791D01*
X6772Y5968D02*
X6826Y5915D01*
X6759Y5591D02*
X6782Y5614D01*
X6898Y5893D02*
X6909D01*
X6774Y3944D02*
X6847Y3870D01*
X6774Y3944D02*
Y3984D01*
X6847Y3870D02*
X6874D01*
X6883Y3861D01*
X6756Y4196D02*
Y4394D01*
Y4196D02*
X6759Y4194D01*
X6756Y2839D02*
X6799Y2797D01*
X6982D01*
X6756Y2839D02*
Y2997D01*
X6859Y1095D02*
X6887Y1067D01*
X6901D01*
X6774Y1150D02*
Y1190D01*
Y1150D02*
X6828Y1095D01*
X6859D01*
X6891Y2448D02*
X6901Y2438D01*
X6774Y2547D02*
X6872Y2448D01*
X6774Y2547D02*
Y2587D01*
X6872Y2448D02*
X6891D01*
X6792Y1622D02*
X6805Y1609D01*
X7458D02*
X7624Y1774D01*
X6098Y1955D02*
X6431Y1622D01*
X6792D01*
X6553Y1499D02*
X6563Y1489D01*
X6728D02*
X6784Y1433D01*
X6563Y1489D02*
X6728D01*
X6805Y1609D02*
X7458D01*
X6846Y1708D02*
X7237D01*
X6784Y1400D02*
X6982D01*
X6762Y1779D02*
X6775D01*
X6759Y1782D02*
X6762Y1779D01*
X6784Y1400D02*
Y1433D01*
X6759Y1782D02*
Y2107D01*
X6775Y1779D02*
X6846Y1708D01*
X7214Y1905D02*
X7379Y2070D01*
X7087Y1857D02*
X7135Y1905D01*
X7214D01*
X7379Y2070D02*
X7456D01*
X7470Y2084D01*
X6909Y1753D02*
Y2253D01*
X6961Y2305D02*
X6994D01*
X6909Y2253D02*
X6961Y2305D01*
X7280Y1804D02*
X7310Y1834D01*
X7280Y1751D02*
Y1804D01*
X6994Y2305D02*
X7024Y2335D01*
X7237Y1708D02*
X7280Y1751D01*
X7310Y1834D02*
X7470D01*
X7024Y2375D02*
X7061Y2412D01*
X7089D01*
X7024Y2335D02*
Y2375D01*
X7255Y3201D02*
X7285Y3231D01*
X7203Y3099D02*
X7255Y3151D01*
X6909Y3099D02*
X7203D01*
X7285Y3231D02*
X7470D01*
X6837Y3099D02*
X6909D01*
Y3652D01*
X7255Y3151D02*
Y3201D01*
X6762Y3174D02*
X6837Y3099D01*
X6909Y3652D02*
X6961Y3704D01*
X6994D01*
X7061Y3809D02*
X7089D01*
X7024Y3734D02*
Y3772D01*
X7061Y3809D01*
X6994Y3704D02*
X7024Y3734D01*
X7397Y4861D02*
X7453D01*
X7470Y4878D01*
X7137Y4676D02*
X7150Y4688D01*
X7225D02*
X7397Y4861D01*
X7150Y4688D02*
X7225D01*
X6909Y4496D02*
Y5072D01*
X6961Y5124D01*
X6909Y4496D02*
X7231D01*
X6961Y5124D02*
X6994D01*
X7024Y5154D01*
Y5169D01*
X6834Y4496D02*
X6909D01*
X7137Y4976D02*
X7186D01*
X7274Y5065D01*
Y5183D01*
X7231Y4496D02*
X7363Y4628D01*
X7470D01*
X6759Y4571D02*
X6834Y4496D01*
X6909Y5893D02*
Y6446D01*
X6961Y6498D01*
X6994D01*
X7024Y6528D01*
Y6566D01*
X6909Y5893D02*
X7269D01*
X7137Y6348D02*
X7157D01*
X7207Y6397D02*
Y6417D01*
X7274Y6485D02*
Y6579D01*
X7157Y6348D02*
X7207Y6397D01*
Y6417D02*
X7274Y6485D01*
X7269Y5893D02*
X7384Y6008D01*
X3534Y6477D02*
X4167D01*
X3445Y6496D02*
X3531D01*
X3546Y6481D01*
X4166Y6648D02*
X4250D01*
X4040Y6625D02*
X4059Y6644D01*
X4163D01*
X4166Y6648D01*
X4167Y6477D02*
X4549Y6095D01*
X5317Y6492D02*
X5412Y6397D01*
X5293Y6492D02*
X5317D01*
X5207Y6579D02*
X5293Y6492D01*
X5049Y6284D02*
X5059Y6274D01*
X5057Y6095D02*
X5058Y6096D01*
Y6276D01*
X5057Y6277D02*
X5058Y6276D01*
X5049Y6284D02*
Y6365D01*
X4506Y6908D02*
X5049Y6365D01*
X7554Y6934D02*
X7620Y6869D01*
X7089Y6908D02*
X7115Y6934D01*
X7554D01*
X7620Y6622D02*
Y6869D01*
X7523Y6525D02*
X7620Y6622D01*
X7359Y5511D02*
X7369Y5521D01*
X7470Y5134D02*
X7613Y5278D01*
X7696Y5221D02*
X7712Y5237D01*
X7570Y5521D02*
X7613Y5478D01*
X7369Y5521D02*
X7570D01*
X7696Y5104D02*
Y5221D01*
X7696Y5535D02*
X7712Y5519D01*
X7696Y5535D02*
Y6049D01*
X7470Y5128D02*
Y5134D01*
X7613Y5278D02*
Y5478D01*
X7712Y5237D02*
Y5519D01*
X7359Y4114D02*
X7369Y4124D01*
X7470Y3737D02*
X7613Y3881D01*
X7696Y3707D02*
Y3824D01*
X7369Y4124D02*
X7570D01*
X7696Y4138D02*
X7712Y4122D01*
X7696Y4138D02*
Y4652D01*
X7712Y3840D02*
Y4122D01*
X7613Y3881D02*
Y4081D01*
X7570Y4124D02*
X7613Y4081D01*
X7470Y3731D02*
Y3737D01*
X7696Y3824D02*
X7712Y3840D01*
X7369Y2727D02*
X7570D01*
X7613Y2484D02*
Y2684D01*
X7470Y2334D02*
Y2340D01*
X7613Y2484D01*
X7712Y2443D02*
Y2725D01*
X7671Y2767D02*
X7712Y2725D01*
X7671Y2401D02*
X7712Y2443D01*
X7671Y2285D02*
Y2401D01*
X7470Y3481D02*
X7671Y3280D01*
X7470Y2084D02*
X7671Y2285D01*
Y2767D02*
Y3280D01*
X7570Y2727D02*
X7613Y2684D01*
X7359Y2717D02*
X7369Y2727D01*
X7614Y1081D02*
Y1287D01*
X7554Y1346D02*
X7614Y1287D01*
X7463Y681D02*
X7712Y930D01*
Y1686D01*
X7470Y937D02*
X7614Y1081D01*
X7620Y1778D02*
X7712Y1686D01*
X7089Y1320D02*
X7115Y1346D01*
X7554D01*
X7061Y1320D02*
X7089D01*
X6292Y4459D02*
X6302Y4449D01*
X6404Y4219D02*
Y5613D01*
X6759Y5968D01*
X5917Y3733D02*
X6404Y4219D01*
X6332Y4007D02*
X6540Y4216D01*
Y4353D01*
X6332Y3916D02*
Y4007D01*
X6295Y4312D02*
Y4327D01*
X6303Y4335D01*
X4689Y2724D02*
X4696Y2717D01*
X4441Y2615D02*
X4572Y2484D01*
X4441Y2615D02*
Y2751D01*
X4696Y2717D02*
X5133D01*
X4318Y2874D02*
X4441Y2751D01*
X4572Y2140D02*
Y2484D01*
X4689Y2971D02*
X5133D01*
X5635Y4100D02*
X5676Y4059D01*
X4930Y3682D02*
X5133Y3479D01*
X5676Y4059D02*
X5681D01*
X4549Y5460D02*
X4930Y5079D01*
Y3682D02*
Y5079D01*
X5029Y4028D02*
Y5584D01*
Y4028D02*
X5133Y3924D01*
X4803Y5810D02*
X5029Y5584D01*
X4549Y5460D02*
Y5841D01*
X4613Y4518D02*
X4621D01*
X4651Y4548D02*
Y4698D01*
X4318Y3382D02*
X4525Y3589D01*
X4621Y4518D02*
X4651Y4548D01*
X4634Y5233D02*
X4826Y5040D01*
X4525Y3589D02*
Y4430D01*
X4826Y3532D02*
X5133Y3225D01*
X4525Y4430D02*
X4613Y4518D01*
X4826Y3532D02*
Y5040D01*
X4318Y2874D02*
Y3382D01*
X5890Y4724D02*
X6133D01*
X6134Y4724D01*
X6016Y4343D02*
X6073Y4286D01*
X5892Y4343D02*
X6016D01*
X7361Y681D02*
X7463D01*
X7470Y2084D02*
X7620Y1934D01*
Y1778D02*
Y1934D01*
X5133Y3733D02*
Y3924D01*
X4803Y5810D02*
Y5841D01*
X4572Y2140D02*
X4920Y1792D01*
X5106Y1701D02*
X5133D01*
X4920Y1792D02*
X5015D01*
X5106Y1701D01*
X5635Y4100D02*
Y4174D01*
X5597Y4212D02*
X5635Y4174D01*
X5895Y3733D02*
X5917D01*
X5907Y3950D02*
X5933D01*
X5597Y4212D02*
Y4222D01*
X7470Y3481D02*
X7696Y3707D01*
X7470Y4878D02*
X7696Y4652D01*
X7470Y6275D02*
X7696Y6049D01*
X7470Y4878D02*
X7696Y5104D01*
X5420Y6280D02*
X5425Y6275D01*
Y6210D02*
Y6275D01*
X5085Y6579D02*
X5207D01*
X4777Y6887D02*
X5085Y6579D01*
X5420Y6280D02*
Y6366D01*
X4756Y6908D02*
X4777Y6887D01*
X3033Y6908D02*
X3445Y6496D01*
X4035Y6609D02*
X4040Y6614D01*
X3797Y6609D02*
X4035D01*
X5362Y7060D02*
X6708D01*
X4930Y406D02*
X4942Y418D01*
X5120D01*
X4930Y685D02*
X5133D01*
X5120Y418D02*
X5133Y431D01*
X4529Y5233D02*
X4634D01*
X3451Y5925D02*
Y6307D01*
X3157Y6601D02*
X3451Y6307D01*
X3341Y5815D02*
X3451Y5925D01*
X3341Y5497D02*
Y5815D01*
X3090Y6601D02*
X3157D01*
X5895Y2209D02*
X6098D01*
X5895Y1955D02*
X6098D01*
X3283Y6908D02*
X3562Y6629D01*
X3777D02*
X3797Y6609D01*
X3562Y6629D02*
X3777D01*
X5057Y5836D02*
Y5841D01*
X5311Y6095D02*
X5425Y6210D01*
X2783Y6908D02*
X3090Y6601D01*
X4250Y6648D02*
X4803Y6095D01*
X5565D02*
X5719Y5941D01*
X7453Y6008D02*
X7470Y6025D01*
X7089Y6095D02*
X7290D01*
X7384Y6008D02*
X7453D01*
X6759Y5591D02*
X6982D01*
X7061Y5206D02*
X7089D01*
X7024Y5169D02*
X7061Y5206D01*
X7089Y5511D02*
X7359D01*
X7061D02*
X7089D01*
X6982Y5591D02*
X7061Y5511D01*
X7274Y5183D02*
X7470Y5378D01*
X7104Y3298D02*
X7287Y3481D01*
X7089Y3298D02*
X7104D01*
Y3508D02*
X7274Y3678D01*
X7089Y3508D02*
X7104D01*
X7287Y3481D02*
X7470D01*
X5057Y5836D02*
X5167Y5726D01*
X6982Y4194D02*
X7061Y4114D01*
X6759Y4194D02*
X6982D01*
X5895Y3479D02*
X6332Y3916D01*
X7274Y3785D02*
X7470Y3981D01*
X7089Y4114D02*
X7359D01*
X7061D02*
X7089D01*
X7274Y3678D02*
Y3785D01*
X6745Y3174D02*
X6759D01*
X6694Y3225D02*
X6745Y3174D01*
X6540Y4353D02*
X6759Y4571D01*
X5895Y3225D02*
X6694D01*
X6982Y2797D02*
X7061Y2717D01*
X7089D01*
X7359D01*
X7104Y2111D02*
X7274Y2281D01*
X7325Y1042D02*
X7470Y1187D01*
X7061Y1015D02*
X7089D01*
X7024Y951D02*
Y978D01*
X7061Y1015D01*
X7089Y2111D02*
X7104D01*
X5895Y2971D02*
X6759Y2107D01*
X7274Y2389D02*
X7470Y2584D01*
X7274Y2281D02*
Y2389D01*
X6982Y1400D02*
X7061Y1320D01*
X7325Y810D02*
Y1042D01*
X7089Y710D02*
X7225D01*
X7325Y810D01*
X6162Y1206D02*
X6174Y1218D01*
X5895Y685D02*
X6176D01*
X5895Y1701D02*
X6759Y837D01*
X5895Y1193D02*
X5908Y1206D01*
X6162D01*
X5895Y939D02*
X6176D01*
X6759Y380D02*
Y837D01*
Y6988D02*
X6982D01*
X7290Y6095D02*
X7470Y6275D01*
Y6525D02*
X7523D01*
X7061Y6603D02*
X7089D01*
X7274Y6579D02*
X7470Y6775D01*
X7024Y6566D02*
X7061Y6603D01*
X6733Y7007D02*
Y7035D01*
X6708Y7060D02*
X6733Y7035D01*
Y7007D02*
X6753Y6988D01*
X6759D01*
X6982D02*
X7061Y6908D01*
D47*
X585Y6552D02*
X1374D01*
X152Y6985D02*
X585Y6552D01*
X237Y5339D02*
Y5893D01*
Y5339D02*
X279Y5296D01*
X2454Y1509D02*
Y1626D01*
X2769Y1589D02*
Y1950D01*
X2720Y1998D02*
X2769Y1950D01*
Y1589D02*
X2872Y1485D01*
X1690Y6552D02*
X2325D01*
X2359Y6586D01*
X2429D02*
X2438Y6595D01*
X2359Y6586D02*
X2429D01*
X3685Y6095D02*
X3685Y6095D01*
Y6328D02*
X3686Y6329D01*
X3685Y6095D02*
Y6328D01*
X4293Y3535D02*
Y3743D01*
X4293Y3743D02*
Y3977D01*
X4293Y3977D02*
X4293Y3977D01*
X4086Y3328D02*
X4293Y3535D01*
X4041Y4317D02*
X4293Y4065D01*
Y3743D02*
X4293Y3743D01*
X4293Y3977D02*
Y4065D01*
X4086Y3321D02*
Y3328D01*
X3863Y3098D02*
X4086Y3321D01*
X3609Y4286D02*
Y4495D01*
X279Y5283D02*
Y5296D01*
X3609Y3098D02*
X3609Y3098D01*
X3685Y2641D02*
X3863Y2463D01*
X3609Y1701D02*
X3609Y1701D01*
Y1472D02*
Y1701D01*
X3215Y1149D02*
X3279Y1086D01*
X3215Y1149D02*
X3308Y1243D01*
X3215Y2641D02*
X3685D01*
X4294Y735D02*
Y1270D01*
X3914Y3479D02*
Y3796D01*
X3686Y4037D02*
X3863Y3860D01*
Y3847D02*
Y3860D01*
Y3847D02*
X3914Y3796D01*
X3609Y3098D02*
Y3479D01*
X3609Y3479D02*
X3609Y3479D01*
X3341Y5434D02*
X3686D01*
X3215Y5224D02*
Y5308D01*
X3341Y5434D01*
X753Y4915D02*
X770D01*
X713Y4876D02*
X753Y4915D01*
X2720Y2997D02*
Y3522D01*
X3609Y2844D02*
Y3098D01*
X3609Y4495D02*
X3609Y4495D01*
X3863Y4241D02*
X3876D01*
X3863Y4495D02*
X4041Y4317D01*
X3952D02*
X4041D01*
X3876Y4241D02*
X3952Y4317D01*
X1348Y4952D02*
X1440Y4861D01*
X2720Y4737D02*
Y5046D01*
X2466Y4343D02*
X2555D01*
X2656Y4241D02*
X2669D01*
X2720Y4737D02*
X2872Y4584D01*
Y4571D02*
Y4584D01*
X2555Y4343D02*
X2656Y4241D01*
X3863Y5244D02*
Y5257D01*
X3914Y4903D02*
Y5193D01*
Y4876D02*
Y4903D01*
X3863Y4495D02*
X4066Y4698D01*
X3609Y4876D02*
X3609Y4876D01*
Y4495D02*
Y4876D01*
X3215Y3898D02*
X3354Y4037D01*
X3863Y5244D02*
X3914Y5193D01*
X3686Y5434D02*
X3863Y5257D01*
X3354Y4037D02*
X3686D01*
X3863Y1701D02*
X4294Y2132D01*
X3863Y304D02*
X4294Y735D01*
X3863Y1701D02*
X4294Y1270D01*
X3863Y3098D02*
X4294Y2667D01*
X4066Y4698D02*
X4295D01*
X2872Y5567D02*
X2954Y5486D01*
X2024Y5521D02*
X2060Y5486D01*
X2024Y5521D02*
Y5891D01*
X2923Y5567D02*
Y5824D01*
X1679Y6564D02*
Y6580D01*
X1005Y5675D02*
X1167D01*
X1200Y5642D02*
X1213D01*
X1167Y5675D02*
X1200Y5642D01*
X3341Y5434D02*
Y5497D01*
X3685Y5841D01*
X3939D02*
X4193D01*
X3685D02*
X3939D01*
X2923Y5824D02*
X3177D01*
X3685Y6095D02*
X3939D01*
X4193D01*
X1348Y4952D02*
Y5206D01*
X770Y4915D02*
X1492Y5637D01*
X2720Y474D02*
X2890Y304D01*
X3914Y2082D02*
Y2399D01*
X3863Y2450D02*
X3914Y2399D01*
X3863Y2450D02*
Y2463D01*
X3609Y1701D02*
Y2082D01*
X3609Y2082D02*
X3609Y2082D01*
X3686Y1243D02*
X3863Y1066D01*
X3308Y1243D02*
X3686D01*
X3863Y1053D02*
X3914Y1002D01*
X3609Y685D02*
X3609Y685D01*
X3863Y1053D02*
Y1066D01*
X3914Y685D02*
Y1002D01*
X1763Y304D02*
X1882Y422D01*
Y660D01*
X713Y812D02*
X1298D01*
X2454Y1509D02*
X2644Y1320D01*
X2872Y1472D02*
Y1485D01*
X2428Y2933D02*
Y2946D01*
X2720Y2997D02*
X2872Y2845D01*
Y2844D02*
Y2845D01*
X2428Y2933D02*
X2618Y2742D01*
X2890Y304D02*
X3609D01*
X3609Y304D02*
X3609Y304D01*
X3609Y304D02*
Y685D01*
X4294Y2132D02*
Y2667D01*
X1822Y6724D02*
Y6877D01*
X1828Y6883D01*
X1679Y6564D02*
X1690Y6552D01*
X1679Y6580D02*
X1822Y6724D01*
D48*
X2632Y6248D02*
X2716Y6164D01*
X3160D02*
X3163D01*
X1157Y5969D02*
X1295D01*
X1105Y5845D02*
X1347D01*
X1088Y5862D02*
X1105Y5845D01*
X1347D02*
X1364Y5862D01*
X1295Y5969D02*
X1465Y6139D01*
X1136Y5990D02*
X1157Y5969D01*
X942Y5990D02*
X1136D01*
X1465Y6139D02*
X1603D01*
X1364Y5862D02*
X1530D01*
X1732Y5659D01*
Y5153D02*
Y5659D01*
X3135Y6188D02*
Y6218D01*
Y6188D02*
X3160Y6164D01*
X2964Y6389D02*
X3135Y6218D01*
X988Y5661D02*
X991Y5664D01*
X988Y5506D02*
Y5661D01*
X943Y5461D02*
X988Y5506D01*
X584Y5461D02*
X943D01*
X409Y5637D02*
X584Y5461D01*
X409Y5637D02*
Y6171D01*
X834Y5862D02*
X1088D01*
X1603Y6139D02*
X1810Y6345D01*
X2131Y6401D02*
X2786D01*
X2840Y6338D02*
Y6346D01*
X2597Y6756D02*
X2833Y6521D01*
X2301Y6722D02*
X2336Y6756D01*
X2597D01*
X2841Y6521D02*
X2964Y6398D01*
X2786Y6401D02*
X2840Y6346D01*
X2833Y6521D02*
X2841D01*
X2964Y6389D02*
Y6398D01*
X2881Y6188D02*
Y6297D01*
X2840Y6338D02*
X2881Y6297D01*
X2299Y6722D02*
X2301D01*
X2028Y6868D02*
X2064Y6832D01*
Y6815D02*
Y6832D01*
X2160Y6719D02*
X2296D01*
X2299Y6722D01*
X2064Y6815D02*
X2160Y6719D01*
X2341Y7087D02*
X2358Y7104D01*
X2492D02*
X2509Y7087D01*
X1803D02*
X2341D01*
X2509D02*
X3354D01*
X3533Y6908D01*
X2425Y6943D02*
X2442D01*
X1655Y6938D02*
X1803Y7087D01*
X2358Y7104D02*
X2492D01*
X2442Y6943D02*
X2477Y6908D01*
X4441Y7064D02*
X5112D01*
X5115Y7060D01*
X4379D02*
X4438D01*
X4441Y7064D01*
X5115Y7060D02*
X5362D01*
X5406Y6879D02*
X5410Y6874D01*
X5344Y6879D02*
X5406D01*
X5321Y6902D02*
X5344Y6879D01*
X5581Y4509D02*
Y4702D01*
X5581Y4509D02*
X5581Y4509D01*
X4723Y2211D02*
Y2490D01*
X4553Y2661D02*
Y3201D01*
Y2661D02*
X4723Y2490D01*
X4553Y3201D02*
X4712Y3361D01*
X5581Y4702D02*
X5597Y4717D01*
X5581Y4506D02*
X5594Y4494D01*
X4712Y3361D02*
Y3836D01*
X4676Y3873D02*
X4712Y3836D01*
X4676Y3873D02*
Y4368D01*
X5594Y4318D02*
Y4494D01*
Y4225D02*
Y4318D01*
X5619Y4343D02*
X5742D01*
X5594Y4318D02*
X5619Y4343D01*
X5733Y4717D02*
X5740Y4724D01*
X5597Y4717D02*
X5733D01*
X4968Y1967D02*
X5122D01*
X4723Y2211D02*
X4968Y1967D01*
X4288Y6969D02*
X4379Y7060D01*
X1628Y6883D02*
X1655Y6910D01*
Y6938D01*
X3139Y6139D02*
X3163Y6164D01*
X3083Y5994D02*
X3139Y6050D01*
X2654Y6056D02*
Y6121D01*
X3163Y6164D02*
X3177D01*
X3139Y6050D02*
Y6139D01*
X2716Y5994D02*
X3083D01*
X2654Y6056D02*
X2716Y5994D01*
X2086Y6388D02*
X2117D01*
X2043Y6345D02*
X2086Y6388D01*
X2117D02*
X2131Y6401D01*
X688Y5716D02*
X834Y5862D01*
X2477Y6908D02*
X2783D01*
X5006Y6902D02*
X5321D01*
X5594Y4225D02*
X5597Y4222D01*
X4117Y2463D02*
Y2615D01*
X3990Y2717D02*
X4015D01*
X4117Y2615D01*
X3953Y1230D02*
X4117Y1066D01*
X3953Y1230D02*
Y1306D01*
X3939Y1320D02*
X3953Y1306D01*
X4080Y3897D02*
Y4008D01*
Y3897D02*
X4117Y3860D01*
X4030Y4058D02*
X4080Y4008D01*
X4030Y4058D02*
Y4078D01*
X3914Y4903D02*
X4013Y5003D01*
X2024Y6121D02*
X2654D01*
X1973Y5465D02*
X2009Y5429D01*
X1810Y6345D02*
X2043D01*
X1870Y6084D02*
X1987D01*
X2024Y6121D01*
X4527Y5235D02*
X4529Y5233D01*
X4527Y5235D02*
Y5257D01*
X4013Y5003D02*
X4365D01*
X688Y5689D02*
Y5716D01*
X733Y6152D02*
X940D01*
X714Y6171D02*
X733Y6152D01*
X940D02*
X942Y6150D01*
X3863Y5277D02*
X3976Y5390D01*
Y5471D01*
X3863Y5257D02*
Y5277D01*
X4117Y5257D02*
X4367D01*
X3976Y5471D02*
X3990Y5486D01*
X942Y6150D02*
X944Y6148D01*
X1207D02*
X1213Y6142D01*
X944Y6148D02*
X1207D01*
X2881Y6188D02*
X2906Y6164D01*
X2923D01*
X5122Y1967D02*
X5133Y1955D01*
X4631Y4756D02*
Y5003D01*
X2028Y6868D02*
Y6883D01*
X1729Y5943D02*
X1870Y6084D01*
X3902Y6920D02*
X4244D01*
X3888Y6933D02*
X3902Y6920D01*
X4256Y6908D02*
Y6925D01*
X4244Y6920D02*
X4256Y6908D01*
X4288Y6957D02*
Y6969D01*
X4256Y6925D02*
X4288Y6957D01*
X5895Y431D02*
X6176D01*
D49*
X7470Y6025D02*
D03*
Y6275D02*
D03*
Y6525D02*
D03*
Y3231D02*
D03*
Y3481D02*
D03*
Y3731D02*
D03*
Y1834D02*
D03*
Y2084D02*
D03*
Y2334D02*
D03*
Y4628D02*
D03*
Y4878D02*
D03*
Y5128D02*
D03*
X4256Y6908D02*
D03*
X4506D02*
D03*
X4756D02*
D03*
X2783D02*
D03*
X3033D02*
D03*
X3283D02*
D03*
X7470Y437D02*
D03*
Y687D02*
D03*
Y937D02*
D03*
D50*
Y6775D02*
D03*
Y3981D02*
D03*
Y2584D02*
D03*
Y5378D02*
D03*
Y1187D02*
D03*
D51*
X5006Y6908D02*
D03*
X3533D02*
D03*
D52*
X713Y1828D02*
D03*
Y2844D02*
D03*
Y3860D02*
D03*
Y4876D02*
D03*
Y812D02*
D03*
D53*
Y1320D02*
D03*
Y2336D02*
D03*
Y3352D02*
D03*
Y4368D02*
D03*
Y304D02*
D03*
D54*
X237Y5893D02*
D03*
X1237Y6143D02*
D03*
Y5643D02*
D03*
D55*
X3863Y1066D02*
D03*
X3609D02*
D03*
X4117Y304D02*
D03*
X3863D02*
D03*
X3609D02*
D03*
X3863Y2463D02*
D03*
X3609D02*
D03*
X4117Y1701D02*
D03*
X3863D02*
D03*
X3609D02*
D03*
X5895Y685D02*
D03*
Y939D02*
D03*
Y1193D02*
D03*
Y1447D02*
D03*
Y1701D02*
D03*
Y1955D02*
D03*
Y2209D02*
D03*
Y2463D02*
D03*
Y2717D02*
D03*
Y2971D02*
D03*
Y3225D02*
D03*
Y3479D02*
D03*
Y3733D02*
D03*
X5133Y431D02*
D03*
Y685D02*
D03*
Y939D02*
D03*
Y1193D02*
D03*
Y1447D02*
D03*
Y1701D02*
D03*
Y1955D02*
D03*
Y2209D02*
D03*
Y2463D02*
D03*
Y2717D02*
D03*
Y2971D02*
D03*
Y3225D02*
D03*
Y3479D02*
D03*
Y3733D02*
D03*
X3863Y3860D02*
D03*
X3609D02*
D03*
X4117Y3098D02*
D03*
X3863D02*
D03*
X3609D02*
D03*
X3863Y5257D02*
D03*
X3609D02*
D03*
X4117Y4495D02*
D03*
X3863D02*
D03*
X3609D02*
D03*
X152Y6985D02*
D03*
X2438Y6595D02*
D03*
X2425Y6943D02*
D03*
X3546Y6481D02*
D03*
X4040Y6625D02*
D03*
X3686Y6329D02*
D03*
X5410Y6874D02*
D03*
X5581Y4509D02*
D03*
X4676Y4368D02*
D03*
X3609Y4286D02*
D03*
X279Y5283D02*
D03*
X2618Y2742D02*
D03*
X2644Y1320D02*
D03*
X2872Y1472D02*
D03*
X3888Y6933D02*
D03*
X1729Y5943D02*
D03*
X1348Y5206D02*
D03*
X3939Y1320D02*
D03*
X3609Y1472D02*
D03*
X2872Y4571D02*
D03*
X2669Y4241D02*
D03*
X3609Y2844D02*
D03*
X2872D02*
D03*
X4030Y4078D02*
D03*
X3863Y4241D02*
D03*
X3990Y5486D02*
D03*
X1882Y660D02*
D03*
X3990Y2717D02*
D03*
D56*
X5565Y6095D02*
D03*
X5311D02*
D03*
X5565Y5841D02*
D03*
X5311D02*
D03*
X5057Y6095D02*
D03*
Y5841D02*
D03*
X4549Y6095D02*
D03*
X4803Y5841D02*
D03*
Y6095D02*
D03*
X3685Y5841D02*
D03*
X3939D02*
D03*
X3685Y6095D02*
D03*
X3939D02*
D03*
X4193Y5841D02*
D03*
D57*
X4549D02*
D03*
X4193Y6095D02*
D03*
D58*
X6502Y6680D02*
D03*
X6901Y6629D02*
D03*
Y5232D02*
D03*
X6782Y5791D02*
D03*
X6883Y3861D02*
D03*
X6756Y4394D02*
D03*
Y2997D02*
D03*
X6901Y1067D02*
D03*
Y2438D02*
D03*
X6553Y1499D02*
D03*
X6762Y1779D02*
D03*
X5412Y6397D02*
D03*
X5059Y6274D02*
D03*
X6762Y3174D02*
D03*
X4689Y2724D02*
D03*
Y2971D02*
D03*
X5681Y4059D02*
D03*
X6759Y5968D02*
D03*
Y4571D02*
D03*
X6176Y939D02*
D03*
X6174Y1218D02*
D03*
X6176Y431D02*
D03*
X4930Y685D02*
D03*
X6176D02*
D03*
X5362Y7060D02*
D03*
X6759Y380D02*
D03*
X4930Y406D02*
D03*
D59*
X6098Y2209D02*
D03*
Y1955D02*
D03*
D60*
X1298Y812D02*
D03*
D61*
X5740Y4724D02*
D03*
X5890D02*
D03*
X5742Y4343D02*
D03*
X5892D02*
D03*
D62*
X3609Y2082D02*
D03*
X3914D02*
D03*
X3609Y3479D02*
D03*
X3914D02*
D03*
X1679Y6552D02*
D03*
X1374D02*
D03*
X3609Y685D02*
D03*
X3914D02*
D03*
X3609Y4876D02*
D03*
X3914D02*
D03*
X991Y5664D02*
D03*
X686D02*
D03*
X714Y6171D02*
D03*
X409D02*
D03*
X4346Y4698D02*
D03*
X4651D02*
D03*
D63*
X4631Y5003D02*
D03*
X4365D02*
D03*
D64*
X942Y6150D02*
D03*
Y5990D02*
D03*
D65*
X3177Y6164D02*
D03*
Y5824D02*
D03*
X2923Y6164D02*
D03*
Y5824D02*
D03*
D66*
X2024Y5891D02*
D03*
Y6121D02*
D03*
Y6351D02*
D03*
D67*
X2654Y6121D02*
D03*
D68*
X7089Y5206D02*
D03*
Y5511D02*
D03*
Y3809D02*
D03*
Y4114D02*
D03*
Y2412D02*
D03*
Y2717D02*
D03*
Y1015D02*
D03*
Y1320D02*
D03*
Y6603D02*
D03*
Y6908D02*
D03*
D69*
X2212Y3624D02*
Y3797D01*
X2110D02*
Y3898D01*
X2373Y1804D02*
X2463Y1894D01*
X2373Y1626D02*
Y1804D01*
X2463Y1995D02*
X2466Y1998D01*
X2463Y1894D02*
Y1995D01*
X2110Y3624D02*
Y3797D01*
X2212Y3522D02*
Y3624D01*
X2468Y2985D02*
Y3522D01*
X2428Y2946D02*
X2468Y2985D01*
X2110Y3624D02*
X2212Y3522D01*
X2009Y5249D02*
Y5429D01*
Y5249D02*
X2212Y5046D01*
X2110Y2100D02*
Y2376D01*
X2466Y4343D02*
Y5046D01*
X2110Y3898D02*
X2212Y3797D01*
X2110Y2100D02*
X2212Y1998D01*
Y5046D02*
Y5333D01*
X2441Y190D02*
X2466Y215D01*
Y474D01*
X2212D02*
Y749D01*
D70*
Y5486D02*
X2954D01*
X2067Y1320D02*
X2454Y1707D01*
X2060Y5486D02*
X2212D01*
X256Y1828D02*
X713D01*
X256Y1035D02*
Y1828D01*
Y2857D01*
X3215Y2376D02*
Y2641D01*
Y1149D02*
Y2376D01*
X1732Y5153D02*
X2009Y5429D01*
X256Y2857D02*
X269Y2844D01*
X256Y3860D02*
Y4627D01*
Y2857D02*
Y3860D01*
X713D01*
X256Y4627D02*
X505Y4876D01*
X269Y2844D02*
X713D01*
X2110Y3898D02*
X3215D01*
Y2641D02*
Y3898D01*
X1840Y4343D02*
X2466D01*
X1336Y2336D02*
X1945Y2946D01*
X1440Y4861D02*
X1732Y5153D01*
X713Y3352D02*
X850D01*
X713Y4368D02*
X947D01*
X713Y2336D02*
X1336D01*
X850Y3352D02*
X1840Y4343D01*
X947Y4368D02*
X1440Y4861D01*
X3215Y4037D02*
Y5224D01*
X2110Y2376D02*
X3215D01*
X479Y812D02*
X713D01*
X256Y1035D02*
X479Y812D01*
X2954Y5486D02*
X3215Y5224D01*
X505Y4876D02*
X713D01*
X2390Y926D02*
X2992D01*
X2212Y749D02*
X2390Y926D01*
X2992D02*
X3215Y1149D01*
X1945Y2946D02*
X2428D01*
X713Y1320D02*
X2067D01*
X713Y304D02*
X1763D01*
D71*
X6303Y4335D02*
X6305Y4337D01*
Y4446D01*
X6292Y4459D02*
Y4534D01*
X6302Y4449D02*
X6305Y4446D01*
X6174Y4651D02*
X6292Y4534D01*
X6274Y4302D02*
X6289Y4318D01*
X5933Y3950D02*
X6274Y4291D01*
Y4302D01*
X5906Y3950D02*
X5907D01*
X5436Y4156D02*
X5510Y4081D01*
Y4080D02*
X5561Y4029D01*
X5342Y4117D02*
Y4841D01*
X5248Y4078D02*
Y4901D01*
Y4078D02*
X5323Y4003D01*
X5154Y4940D02*
X5167Y4952D01*
X5154Y4039D02*
Y4940D01*
Y4039D02*
X5229Y3964D01*
Y3964D02*
X5279Y3914D01*
X5342Y4841D02*
X5565Y5064D01*
X5323Y4003D02*
X5374Y3952D01*
X5279Y1593D02*
Y3914D01*
X5655Y3863D02*
X5802Y4009D01*
X5510Y4080D02*
Y4081D01*
X5417Y4041D02*
Y4042D01*
X5561Y1781D02*
Y4029D01*
X5417Y4041D02*
X5468Y3990D01*
X5655Y2703D02*
Y3863D01*
X5749Y3793D02*
X5906Y3950D01*
X5133Y939D02*
X5468Y1274D01*
X5659Y5030D02*
X5719Y5090D01*
X5468Y1274D02*
Y3990D01*
X5749Y2863D02*
X5895Y2717D01*
X5655Y2703D02*
X5895Y2463D01*
X5167Y4952D02*
Y5726D01*
X5374Y1434D02*
Y3952D01*
X5436Y4710D02*
X5659Y4933D01*
X5802Y4019D02*
X5828Y4046D01*
X5802Y4009D02*
Y4019D01*
X5561Y1781D02*
X5895Y1447D01*
X5659Y4933D02*
Y5030D01*
X5323Y4003D02*
Y4003D01*
X5436Y4156D02*
Y4710D01*
X5749Y2863D02*
Y3793D01*
X5248Y4901D02*
X5311Y4964D01*
X5342Y4117D02*
X5417Y4042D01*
X5133Y1447D02*
X5279Y1593D01*
X5229Y3964D02*
Y3964D01*
X5828Y4046D02*
X5893D01*
X6174Y4651D02*
Y4764D01*
X5133Y1193D02*
X5374Y1434D01*
X5719Y5090D02*
Y5941D01*
X6134Y4724D02*
X6174Y4764D01*
Y4876D01*
X6073Y4286D02*
X6174Y4388D01*
X6073Y4226D02*
Y4286D01*
X5893Y4046D02*
X6073Y4226D01*
X5565Y5064D02*
Y5841D01*
X5311Y4964D02*
Y5841D01*
D72*
X1878Y190D02*
X2441D01*
X1763Y304D02*
X1878Y190D01*
M02*
