G04*
G04 #@! TF.GenerationSoftware,Altium Limited,Altium Designer,22.5.1 (42)*
G04*
G04 Layer_Color=32896*
%FSLAX42Y42*%
%MOMM*%
G71*
G04*
G04 #@! TF.SameCoordinates,E9C7B45F-A4FB-49F3-BE10-4E13B05C86B2*
G04*
G04*
G04 #@! TF.FilePolarity,Positive*
G04*
G01*
G75*
%ADD10C,0.25*%
%ADD11C,0.20*%
%ADD13C,0.25*%
D10*
X1876Y5888D02*
G03*
X1876Y5888I-12J0D01*
G01*
D11*
X7172Y575D02*
Y645D01*
X7002Y575D02*
Y645D01*
X7172Y1972D02*
Y2042D01*
X7002Y1972D02*
Y2042D01*
X7172Y3371D02*
Y3441D01*
X7002Y3371D02*
Y3441D01*
X7172Y6163D02*
Y6233D01*
X7002Y6163D02*
Y6233D01*
X7172Y4766D02*
Y4836D01*
X7002Y4766D02*
Y4836D01*
X6674Y6848D02*
Y6918D01*
X6844Y6848D02*
Y6918D01*
X6674Y5451D02*
Y5521D01*
X6844Y5451D02*
Y5521D01*
X6674Y4054D02*
Y4124D01*
X6844Y4054D02*
Y4124D01*
X6674Y2657D02*
Y2727D01*
X6844Y2657D02*
Y2727D01*
X6674Y1260D02*
Y1330D01*
X6844Y1260D02*
Y1330D01*
X5705Y4617D02*
X5925D01*
X5705Y4832D02*
X5925D01*
X5707Y4236D02*
X5927D01*
X5707Y4451D02*
X5927D01*
X3711Y2002D02*
X3811D01*
X3711Y2162D02*
X3811D01*
X3711Y3399D02*
X3811D01*
X3711Y3559D02*
X3811D01*
X1476Y6632D02*
X1576D01*
X1476Y6472D02*
X1576D01*
X3711Y605D02*
X3811D01*
X3711Y765D02*
X3811D01*
X3711Y4796D02*
X3811D01*
X3711Y4956D02*
X3811D01*
X4437Y5310D02*
X4457D01*
X4437Y5204D02*
X4457D01*
X4448Y5073D02*
X4548D01*
X4448Y4933D02*
X4548D01*
X890Y6060D02*
Y6080D01*
X994Y6060D02*
Y6080D01*
X3087Y5924D02*
Y6064D01*
X3267Y5924D02*
Y6064D01*
X788Y5744D02*
X888D01*
X788Y5584D02*
X888D01*
X2833Y5924D02*
Y6064D01*
X3013Y5924D02*
Y6064D01*
X511Y6251D02*
X611D01*
X511Y6091D02*
X611D01*
X4448Y4618D02*
X4548D01*
X4448Y4778D02*
X4548D01*
X2154Y5786D02*
X2524D01*
Y6348D02*
Y6456D01*
Y5786D02*
Y5893D01*
X2154Y6456D02*
X2524D01*
X2154Y6233D02*
Y6238D01*
Y6003D02*
Y6008D01*
X7169Y5308D02*
Y5408D01*
X7009Y5308D02*
Y5408D01*
X7169Y3912D02*
Y4012D01*
X7009Y3912D02*
Y4012D01*
X7169Y2515D02*
Y2615D01*
X7009Y2515D02*
Y2615D01*
X7169Y1118D02*
Y1218D01*
X7009Y1118D02*
Y1218D01*
X7169Y6706D02*
Y6806D01*
X7009Y6706D02*
Y6806D01*
D13*
X7828Y6578D02*
Y6730D01*
X7752D01*
X7726Y6705D01*
Y6654D01*
X7752Y6629D01*
X7828D01*
X7777D02*
X7726Y6578D01*
X7676Y6552D02*
X7574D01*
X7422Y6705D02*
X7447Y6730D01*
X7498D01*
X7523Y6705D01*
Y6679D01*
X7498Y6654D01*
X7447D01*
X7422Y6629D01*
Y6603D01*
X7447Y6578D01*
X7498D01*
X7523Y6603D01*
X7269Y6730D02*
X7371D01*
Y6578D01*
X7269D01*
X7371Y6654D02*
X7320D01*
X7219Y6578D02*
Y6730D01*
X7117Y6578D01*
Y6730D01*
X6965D02*
X7066D01*
Y6654D01*
X7015Y6679D01*
X6990D01*
X6965Y6654D01*
Y6603D01*
X6990Y6578D01*
X7041D01*
X7066Y6603D01*
X7828Y5181D02*
Y5333D01*
X7752D01*
X7726Y5308D01*
Y5257D01*
X7752Y5232D01*
X7828D01*
X7777D02*
X7726Y5181D01*
X7676Y5155D02*
X7574D01*
X7422Y5308D02*
X7447Y5333D01*
X7498D01*
X7523Y5308D01*
Y5282D01*
X7498Y5257D01*
X7447D01*
X7422Y5232D01*
Y5206D01*
X7447Y5181D01*
X7498D01*
X7523Y5206D01*
X7269Y5333D02*
X7371D01*
Y5181D01*
X7269D01*
X7371Y5257D02*
X7320D01*
X7219Y5181D02*
Y5333D01*
X7117Y5181D01*
Y5333D01*
X6990Y5181D02*
Y5333D01*
X7066Y5257D01*
X6965D01*
X7828Y3786D02*
Y3939D01*
X7752D01*
X7726Y3913D01*
Y3863D01*
X7752Y3837D01*
X7828D01*
X7777D02*
X7726Y3786D01*
X7676Y3761D02*
X7574D01*
X7422Y3913D02*
X7447Y3939D01*
X7498D01*
X7523Y3913D01*
Y3888D01*
X7498Y3863D01*
X7447D01*
X7422Y3837D01*
Y3812D01*
X7447Y3786D01*
X7498D01*
X7523Y3812D01*
X7269Y3939D02*
X7371D01*
Y3786D01*
X7269D01*
X7371Y3863D02*
X7320D01*
X7219Y3786D02*
Y3939D01*
X7117Y3786D01*
Y3939D01*
X7066Y3913D02*
X7041Y3939D01*
X6990D01*
X6965Y3913D01*
Y3888D01*
X6990Y3863D01*
X7015D01*
X6990D01*
X6965Y3837D01*
Y3812D01*
X6990Y3786D01*
X7041D01*
X7066Y3812D01*
X7828Y2387D02*
Y2539D01*
X7752D01*
X7726Y2514D01*
Y2463D01*
X7752Y2438D01*
X7828D01*
X7777D02*
X7726Y2387D01*
X7676Y2361D02*
X7574D01*
X7422Y2514D02*
X7447Y2539D01*
X7498D01*
X7523Y2514D01*
Y2488D01*
X7498Y2463D01*
X7447D01*
X7422Y2438D01*
Y2412D01*
X7447Y2387D01*
X7498D01*
X7523Y2412D01*
X7269Y2539D02*
X7371D01*
Y2387D01*
X7269D01*
X7371Y2463D02*
X7320D01*
X7219Y2387D02*
Y2539D01*
X7117Y2387D01*
Y2539D01*
X6965Y2387D02*
X7066D01*
X6965Y2488D01*
Y2514D01*
X6990Y2539D01*
X7041D01*
X7066Y2514D01*
X7777Y990D02*
Y1142D01*
X7701D01*
X7676Y1117D01*
Y1066D01*
X7701Y1041D01*
X7777D01*
X7726D02*
X7676Y990D01*
X7625Y964D02*
X7523D01*
X7371Y1117D02*
X7396Y1142D01*
X7447D01*
X7472Y1117D01*
Y1091D01*
X7447Y1066D01*
X7396D01*
X7371Y1041D01*
Y1015D01*
X7396Y990D01*
X7447D01*
X7472Y1015D01*
X7219Y1142D02*
X7320D01*
Y990D01*
X7219D01*
X7320Y1066D02*
X7269D01*
X7168Y990D02*
Y1142D01*
X7066Y990D01*
Y1142D01*
X7015Y990D02*
X6965D01*
X6990D01*
Y1142D01*
X7015Y1117D01*
X5844Y4665D02*
X5870Y4691D01*
X5920D01*
X5946Y4665D01*
Y4564D01*
X5920Y4538D01*
X5870D01*
X5844Y4564D01*
X5793Y4665D02*
X5768Y4691D01*
X5717D01*
X5692Y4665D01*
Y4640D01*
X5717Y4614D01*
X5743D01*
X5717D01*
X5692Y4589D01*
Y4564D01*
X5717Y4538D01*
X5768D01*
X5793Y4564D01*
X5844Y5046D02*
X5870Y5072D01*
X5920D01*
X5946Y5046D01*
Y4945D01*
X5920Y4919D01*
X5870D01*
X5844Y4945D01*
X5717Y4919D02*
Y5072D01*
X5793Y4995D01*
X5692D01*
X4104Y294D02*
X4257D01*
Y370D01*
X4231Y395D01*
X4180D01*
X4155Y370D01*
Y294D01*
Y345D02*
X4104Y395D01*
Y522D02*
X4257D01*
X4180Y446D01*
Y548D01*
X4231Y599D02*
X4257Y624D01*
Y675D01*
X4231Y700D01*
X4130D01*
X4104Y675D01*
Y624D01*
X4130Y599D01*
X4231D01*
X4104Y751D02*
Y802D01*
Y776D01*
X4257D01*
X4231Y751D01*
X2220Y6728D02*
Y6626D01*
X2169Y6575D01*
X2118Y6626D01*
Y6728D01*
X2067Y6575D02*
Y6728D01*
X1991D01*
X1966Y6702D01*
Y6651D01*
X1991Y6626D01*
X2067D01*
X2016D02*
X1966Y6575D01*
X1915D02*
X1864D01*
X1890D01*
Y6728D01*
X1915Y6702D01*
X7988Y7124D02*
Y7276D01*
X7912D01*
X7886Y7251D01*
Y7200D01*
X7912Y7175D01*
X7988D01*
X7937D02*
X7886Y7124D01*
X7836Y7098D02*
X7734D01*
X7582Y7251D02*
X7607Y7276D01*
X7658D01*
X7683Y7251D01*
Y7225D01*
X7658Y7200D01*
X7607D01*
X7582Y7175D01*
Y7149D01*
X7607Y7124D01*
X7658D01*
X7683Y7149D01*
X7429Y7276D02*
X7531D01*
Y7124D01*
X7429D01*
X7531Y7200D02*
X7480D01*
X7379Y7124D02*
Y7276D01*
X7277Y7124D01*
Y7276D01*
X7125D02*
X7226D01*
Y7200D01*
X7175Y7225D01*
X7150D01*
X7125Y7200D01*
Y7149D01*
X7150Y7124D01*
X7201D01*
X7226Y7149D01*
X6972Y7124D02*
X7074D01*
X6972Y7225D01*
Y7251D01*
X6998Y7276D01*
X7048D01*
X7074Y7251D01*
X7988Y5727D02*
Y5879D01*
X7912D01*
X7886Y5854D01*
Y5803D01*
X7912Y5778D01*
X7988D01*
X7937D02*
X7886Y5727D01*
X7836Y5702D02*
X7734D01*
X7582Y5854D02*
X7607Y5879D01*
X7658D01*
X7683Y5854D01*
Y5828D01*
X7658Y5803D01*
X7607D01*
X7582Y5778D01*
Y5752D01*
X7607Y5727D01*
X7658D01*
X7683Y5752D01*
X7429Y5879D02*
X7531D01*
Y5727D01*
X7429D01*
X7531Y5803D02*
X7480D01*
X7379Y5727D02*
Y5879D01*
X7277Y5727D01*
Y5879D01*
X7150Y5727D02*
Y5879D01*
X7226Y5803D01*
X7125D01*
X6972Y5727D02*
X7074D01*
X6972Y5828D01*
Y5854D01*
X6998Y5879D01*
X7048D01*
X7074Y5854D01*
X7988Y4330D02*
Y4482D01*
X7912D01*
X7886Y4457D01*
Y4406D01*
X7912Y4381D01*
X7988D01*
X7937D02*
X7886Y4330D01*
X7836Y4305D02*
X7734D01*
X7582Y4457D02*
X7607Y4482D01*
X7658D01*
X7683Y4457D01*
Y4431D01*
X7658Y4406D01*
X7607D01*
X7582Y4381D01*
Y4355D01*
X7607Y4330D01*
X7658D01*
X7683Y4355D01*
X7429Y4482D02*
X7531D01*
Y4330D01*
X7429D01*
X7531Y4406D02*
X7480D01*
X7379Y4330D02*
Y4482D01*
X7277Y4330D01*
Y4482D01*
X7226Y4457D02*
X7201Y4482D01*
X7150D01*
X7125Y4457D01*
Y4431D01*
X7150Y4406D01*
X7175D01*
X7150D01*
X7125Y4381D01*
Y4355D01*
X7150Y4330D01*
X7201D01*
X7226Y4355D01*
X6972Y4330D02*
X7074D01*
X6972Y4431D01*
Y4457D01*
X6998Y4482D01*
X7048D01*
X7074Y4457D01*
X7988Y2933D02*
Y3085D01*
X7912D01*
X7886Y3060D01*
Y3009D01*
X7912Y2984D01*
X7988D01*
X7937D02*
X7886Y2933D01*
X7836Y2908D02*
X7734D01*
X7582Y3060D02*
X7607Y3085D01*
X7658D01*
X7683Y3060D01*
Y3034D01*
X7658Y3009D01*
X7607D01*
X7582Y2984D01*
Y2958D01*
X7607Y2933D01*
X7658D01*
X7683Y2958D01*
X7429Y3085D02*
X7531D01*
Y2933D01*
X7429D01*
X7531Y3009D02*
X7480D01*
X7379Y2933D02*
Y3085D01*
X7277Y2933D01*
Y3085D01*
X7125Y2933D02*
X7226D01*
X7125Y3034D01*
Y3060D01*
X7150Y3085D01*
X7201D01*
X7226Y3060D01*
X6972Y2933D02*
X7074D01*
X6972Y3034D01*
Y3060D01*
X6998Y3085D01*
X7048D01*
X7074Y3060D01*
X7963Y1536D02*
Y1688D01*
X7886D01*
X7861Y1663D01*
Y1612D01*
X7886Y1587D01*
X7963D01*
X7912D02*
X7861Y1536D01*
X7810Y1511D02*
X7709D01*
X7556Y1663D02*
X7582Y1688D01*
X7632D01*
X7658Y1663D01*
Y1637D01*
X7632Y1612D01*
X7582D01*
X7556Y1587D01*
Y1561D01*
X7582Y1536D01*
X7632D01*
X7658Y1561D01*
X7404Y1688D02*
X7506D01*
Y1536D01*
X7404D01*
X7506Y1612D02*
X7455D01*
X7353Y1536D02*
Y1688D01*
X7252Y1536D01*
Y1688D01*
X7201Y1536D02*
X7150D01*
X7175D01*
Y1688D01*
X7201Y1663D01*
X6972Y1536D02*
X7074D01*
X6972Y1637D01*
Y1663D01*
X6998Y1688D01*
X7048D01*
X7074Y1663D01*
X8168Y7154D02*
Y7307D01*
X8092D01*
X8067Y7281D01*
Y7231D01*
X8092Y7205D01*
X8168D01*
X8118D02*
X8067Y7154D01*
X8016Y7129D02*
X7914D01*
X7864Y7307D02*
Y7154D01*
X7762D01*
X7610Y7307D02*
X7711D01*
Y7154D01*
X7610D01*
X7711Y7231D02*
X7660D01*
X7559Y7307D02*
Y7154D01*
X7483D01*
X7457Y7180D01*
Y7281D01*
X7483Y7307D01*
X7559D01*
X7407Y7129D02*
X7305D01*
X7153Y7281D02*
X7178Y7307D01*
X7229D01*
X7254Y7281D01*
Y7256D01*
X7229Y7231D01*
X7178D01*
X7153Y7205D01*
Y7180D01*
X7178Y7154D01*
X7229D01*
X7254Y7180D01*
X7000Y7307D02*
X7102D01*
Y7154D01*
X7000D01*
X7102Y7231D02*
X7051D01*
X6949Y7154D02*
Y7307D01*
X6848Y7154D01*
Y7307D01*
X6696D02*
X6797D01*
Y7231D01*
X6746Y7256D01*
X6721D01*
X6696Y7231D01*
Y7180D01*
X6721Y7154D01*
X6772D01*
X6797Y7180D01*
X5349Y5214D02*
Y5061D01*
X5425D01*
X5450Y5087D01*
Y5138D01*
X5425Y5163D01*
X5349D01*
X5400D02*
X5450Y5214D01*
X5501Y5239D02*
X5603D01*
X5654Y5061D02*
Y5214D01*
X5755D01*
X5908Y5061D02*
X5806D01*
Y5214D01*
X5908D01*
X5806Y5138D02*
X5857D01*
X5958Y5061D02*
Y5214D01*
X6034D01*
X6060Y5188D01*
Y5087D01*
X6034Y5061D01*
X5958D01*
X6111Y5239D02*
X6212D01*
X6365Y5087D02*
X6339Y5061D01*
X6288D01*
X6263Y5087D01*
Y5112D01*
X6288Y5138D01*
X6339D01*
X6365Y5163D01*
Y5188D01*
X6339Y5214D01*
X6288D01*
X6263Y5188D01*
X6517Y5061D02*
X6415D01*
Y5214D01*
X6517D01*
X6415Y5138D02*
X6466D01*
X6568Y5214D02*
Y5061D01*
X6669Y5214D01*
Y5061D01*
X6796Y5214D02*
Y5061D01*
X6720Y5138D01*
X6822D01*
X5349Y3817D02*
Y3664D01*
X5425D01*
X5450Y3690D01*
Y3741D01*
X5425Y3766D01*
X5349D01*
X5400D02*
X5450Y3817D01*
X5501Y3842D02*
X5603D01*
X5654Y3664D02*
Y3817D01*
X5755D01*
X5908Y3664D02*
X5806D01*
Y3817D01*
X5908D01*
X5806Y3741D02*
X5857D01*
X5958Y3664D02*
Y3817D01*
X6034D01*
X6060Y3791D01*
Y3690D01*
X6034Y3664D01*
X5958D01*
X6111Y3842D02*
X6212D01*
X6365Y3690D02*
X6339Y3664D01*
X6288D01*
X6263Y3690D01*
Y3715D01*
X6288Y3741D01*
X6339D01*
X6365Y3766D01*
Y3791D01*
X6339Y3817D01*
X6288D01*
X6263Y3791D01*
X6517Y3664D02*
X6415D01*
Y3817D01*
X6517D01*
X6415Y3741D02*
X6466D01*
X6568Y3817D02*
Y3664D01*
X6669Y3817D01*
Y3664D01*
X6720Y3690D02*
X6745Y3664D01*
X6796D01*
X6822Y3690D01*
Y3715D01*
X6796Y3741D01*
X6771D01*
X6796D01*
X6822Y3766D01*
Y3791D01*
X6796Y3817D01*
X6745D01*
X6720Y3791D01*
X5349Y2419D02*
Y2267D01*
X5425D01*
X5450Y2292D01*
Y2343D01*
X5425Y2368D01*
X5349D01*
X5400D02*
X5450Y2419D01*
X5501Y2444D02*
X5603D01*
X5654Y2267D02*
Y2419D01*
X5755D01*
X5908Y2267D02*
X5806D01*
Y2419D01*
X5908D01*
X5806Y2343D02*
X5857D01*
X5958Y2267D02*
Y2419D01*
X6034D01*
X6060Y2394D01*
Y2292D01*
X6034Y2267D01*
X5958D01*
X6111Y2444D02*
X6212D01*
X6365Y2292D02*
X6339Y2267D01*
X6288D01*
X6263Y2292D01*
Y2317D01*
X6288Y2343D01*
X6339D01*
X6365Y2368D01*
Y2394D01*
X6339Y2419D01*
X6288D01*
X6263Y2394D01*
X6517Y2267D02*
X6415D01*
Y2419D01*
X6517D01*
X6415Y2343D02*
X6466D01*
X6568Y2419D02*
Y2267D01*
X6669Y2419D01*
Y2267D01*
X6822Y2419D02*
X6720D01*
X6822Y2317D01*
Y2292D01*
X6796Y2267D01*
X6745D01*
X6720Y2292D01*
X5400Y1023D02*
Y870D01*
X5476D01*
X5501Y896D01*
Y947D01*
X5476Y972D01*
X5400D01*
X5450D02*
X5501Y1023D01*
X5552Y1048D02*
X5654D01*
X5704Y870D02*
Y1023D01*
X5806D01*
X5958Y870D02*
X5857D01*
Y1023D01*
X5958D01*
X5857Y947D02*
X5908D01*
X6009Y870D02*
Y1023D01*
X6085D01*
X6111Y997D01*
Y896D01*
X6085Y870D01*
X6009D01*
X6161Y1048D02*
X6263D01*
X6415Y896D02*
X6390Y870D01*
X6339D01*
X6314Y896D01*
Y921D01*
X6339Y947D01*
X6390D01*
X6415Y972D01*
Y997D01*
X6390Y1023D01*
X6339D01*
X6314Y997D01*
X6568Y870D02*
X6466D01*
Y1023D01*
X6568D01*
X6466Y947D02*
X6517D01*
X6619Y1023D02*
Y870D01*
X6720Y1023D01*
Y870D01*
X6771Y1023D02*
X6822D01*
X6796D01*
Y870D01*
X6771Y896D01*
X4104Y1691D02*
X4257D01*
Y1767D01*
X4231Y1792D01*
X4180D01*
X4155Y1767D01*
Y1691D01*
Y1742D02*
X4104Y1792D01*
X4231Y1843D02*
X4257Y1869D01*
Y1919D01*
X4231Y1945D01*
X4206D01*
X4180Y1919D01*
Y1894D01*
Y1919D01*
X4155Y1945D01*
X4130D01*
X4104Y1919D01*
Y1869D01*
X4130Y1843D01*
X4231Y1996D02*
X4257Y2021D01*
Y2072D01*
X4231Y2097D01*
X4130D01*
X4104Y2072D01*
Y2021D01*
X4130Y1996D01*
X4231D01*
X4104Y2148D02*
Y2199D01*
Y2173D01*
X4257D01*
X4231Y2148D01*
X4104Y3088D02*
X4257D01*
Y3164D01*
X4231Y3189D01*
X4180D01*
X4155Y3164D01*
Y3088D01*
Y3139D02*
X4104Y3189D01*
Y3342D02*
Y3240D01*
X4206Y3342D01*
X4231D01*
X4257Y3316D01*
Y3266D01*
X4231Y3240D01*
Y3393D02*
X4257Y3418D01*
Y3469D01*
X4231Y3494D01*
X4130D01*
X4104Y3469D01*
Y3418D01*
X4130Y3393D01*
X4231D01*
X4104Y3545D02*
Y3596D01*
Y3570D01*
X4257D01*
X4231Y3545D01*
X4874Y5414D02*
Y5567D01*
X4798D01*
X4772Y5541D01*
Y5491D01*
X4798Y5465D01*
X4874D01*
X4823D02*
X4772Y5414D01*
X4722D02*
X4671D01*
X4696D01*
Y5567D01*
X4722Y5541D01*
X4595D02*
X4569Y5567D01*
X4518D01*
X4493Y5541D01*
Y5440D01*
X4518Y5414D01*
X4569D01*
X4595Y5440D01*
Y5541D01*
X4341Y5414D02*
X4442D01*
X4341Y5516D01*
Y5541D01*
X4366Y5567D01*
X4417D01*
X4442Y5541D01*
X4104Y4510D02*
X4257D01*
Y4586D01*
X4231Y4612D01*
X4180D01*
X4155Y4586D01*
Y4510D01*
Y4561D02*
X4104Y4612D01*
Y4663D02*
Y4713D01*
Y4688D01*
X4257D01*
X4231Y4663D01*
Y4790D02*
X4257Y4815D01*
Y4866D01*
X4231Y4891D01*
X4130D01*
X4104Y4866D01*
Y4815D01*
X4130Y4790D01*
X4231D01*
X4104Y4942D02*
Y4993D01*
Y4967D01*
X4257D01*
X4231Y4942D01*
X1844Y6771D02*
Y6923D01*
X1768D01*
X1742Y6898D01*
Y6847D01*
X1768Y6822D01*
X1844D01*
X1793D02*
X1742Y6771D01*
X1691Y6898D02*
X1666Y6923D01*
X1615D01*
X1590Y6898D01*
Y6796D01*
X1615Y6771D01*
X1666D01*
X1691Y6796D01*
Y6898D01*
X1539D02*
X1514Y6923D01*
X1463D01*
X1437Y6898D01*
Y6796D01*
X1463Y6771D01*
X1514D01*
X1539Y6796D01*
Y6898D01*
X1285Y6923D02*
X1336Y6898D01*
X1387Y6847D01*
Y6796D01*
X1361Y6771D01*
X1310D01*
X1285Y6796D01*
Y6822D01*
X1310Y6847D01*
X1387D01*
X878Y6390D02*
Y6542D01*
X802D01*
X777Y6517D01*
Y6466D01*
X802Y6441D01*
X878D01*
X828D02*
X777Y6390D01*
X726Y6517D02*
X701Y6542D01*
X650D01*
X625Y6517D01*
Y6415D01*
X650Y6390D01*
X701D01*
X726Y6415D01*
Y6517D01*
X574D02*
X548Y6542D01*
X498D01*
X472Y6517D01*
Y6415D01*
X498Y6390D01*
X548D01*
X574Y6415D01*
Y6517D01*
X320Y6542D02*
X421D01*
Y6466D01*
X371Y6491D01*
X345D01*
X320Y6466D01*
Y6415D01*
X345Y6390D01*
X396D01*
X421Y6415D01*
X1079Y5882D02*
Y6034D01*
X1003D01*
X978Y6009D01*
Y5958D01*
X1003Y5933D01*
X1079D01*
X1028D02*
X978Y5882D01*
X927Y6009D02*
X901Y6034D01*
X851D01*
X825Y6009D01*
Y5907D01*
X851Y5882D01*
X901D01*
X927Y5907D01*
Y6009D01*
X774D02*
X749Y6034D01*
X698D01*
X673Y6009D01*
Y5907D01*
X698Y5882D01*
X749D01*
X774Y5907D01*
Y6009D01*
X546Y5882D02*
Y6034D01*
X622Y5958D01*
X521D01*
X1442Y6278D02*
Y6430D01*
X1366D01*
X1341Y6405D01*
Y6354D01*
X1366Y6329D01*
X1442D01*
X1392D02*
X1341Y6278D01*
X1290Y6405D02*
X1265Y6430D01*
X1214D01*
X1188Y6405D01*
Y6303D01*
X1214Y6278D01*
X1265D01*
X1290Y6303D01*
Y6405D01*
X1138D02*
X1112Y6430D01*
X1062D01*
X1036Y6405D01*
Y6303D01*
X1062Y6278D01*
X1112D01*
X1138Y6303D01*
Y6405D01*
X985D02*
X960Y6430D01*
X909D01*
X884Y6405D01*
Y6380D01*
X909Y6354D01*
X935D01*
X909D01*
X884Y6329D01*
Y6303D01*
X909Y6278D01*
X960D01*
X985Y6303D01*
X4815Y4917D02*
Y5069D01*
X4739D01*
X4714Y5044D01*
Y4993D01*
X4739Y4967D01*
X4815D01*
X4765D02*
X4714Y4917D01*
X4663Y5044D02*
X4638Y5069D01*
X4587D01*
X4562Y5044D01*
Y4942D01*
X4587Y4917D01*
X4638D01*
X4663Y4942D01*
Y5044D01*
X4511D02*
X4485Y5069D01*
X4435D01*
X4409Y5044D01*
Y4942D01*
X4435Y4917D01*
X4485D01*
X4511Y4942D01*
Y5044D01*
X4257Y4917D02*
X4358D01*
X4257Y5018D01*
Y5044D01*
X4282Y5069D01*
X4333D01*
X4358Y5044D01*
X4843Y5176D02*
Y5328D01*
X4767D01*
X4742Y5303D01*
Y5252D01*
X4767Y5227D01*
X4843D01*
X4793D02*
X4742Y5176D01*
X4691Y5303D02*
X4666Y5328D01*
X4615D01*
X4590Y5303D01*
Y5201D01*
X4615Y5176D01*
X4666D01*
X4691Y5201D01*
Y5303D01*
X4539D02*
X4513Y5328D01*
X4463D01*
X4437Y5303D01*
Y5201D01*
X4463Y5176D01*
X4513D01*
X4539Y5201D01*
Y5303D01*
X4386Y5176D02*
X4336D01*
X4361D01*
Y5328D01*
X4386Y5303D01*
X3246Y6448D02*
X3271Y6474D01*
X3322D01*
X3347Y6448D01*
Y6347D01*
X3322Y6321D01*
X3271D01*
X3246Y6347D01*
X3093Y6321D02*
X3195D01*
X3093Y6423D01*
Y6448D01*
X3119Y6474D01*
X3170D01*
X3195Y6448D01*
X2941D02*
X2966Y6474D01*
X3017D01*
X3043Y6448D01*
Y6347D01*
X3017Y6321D01*
X2966D01*
X2941Y6347D01*
X2890Y6321D02*
X2839D01*
X2865D01*
Y6474D01*
X2890Y6448D01*
X0Y0D02*
X7800D01*
X0D02*
Y7200D01*
X7800D01*
Y0D02*
Y7200D01*
M02*
