G04*
G04 #@! TF.GenerationSoftware,Altium Limited,Altium Designer,22.5.1 (42)*
G04*
G04 Layer_Color=255*
%FSLAX42Y42*%
%MOMM*%
G71*
G04*
G04 #@! TF.SameCoordinates,E9C7B45F-A4FB-49F3-BE10-4E13B05C86B2*
G04*
G04*
G04 #@! TF.FilePolarity,Positive*
G04*
G01*
G75*
%ADD13C,0.25*%
%ADD17R,1.50X1.50*%
%ADD18R,1.50X1.50*%
%ADD24R,2.00X2.00*%
%ADD25C,2.00*%
%ADD27R,1.30X1.30*%
%ADD28C,1.30*%
%ADD29C,1.55*%
%ADD33R,1.20X1.20*%
%ADD34C,1.20*%
%ADD42R,1.90X1.50*%
%ADD44R,0.80X1.25*%
%ADD49C,1.40*%
%ADD50R,1.40X1.40*%
%ADD51R,1.40X1.40*%
%ADD52R,1.80X1.80*%
%ADD53C,1.80*%
%ADD54C,1.52*%
%ADD55C,1.50*%
%ADD56C,1.65*%
%ADD57R,1.65X1.65*%
%ADD61R,0.95X1.35*%
%ADD62R,1.25X1.80*%
%ADD63R,0.85X1.60*%
%ADD64R,1.25X0.80*%
%ADD65R,1.60X1.25*%
%ADD66R,2.00X1.50*%
%ADD67R,2.00X3.80*%
%ADD68R,1.80X1.25*%
D13*
X0Y0D02*
X7800D01*
X0D02*
Y7200D01*
X7800D01*
Y0D02*
Y7200D01*
D17*
X4117Y1066D02*
D03*
Y2463D02*
D03*
Y3860D02*
D03*
Y5257D02*
D03*
D18*
X5895Y431D02*
D03*
D24*
X2720Y1998D02*
D03*
Y5046D02*
D03*
Y3522D02*
D03*
Y474D02*
D03*
D25*
X2466Y1998D02*
D03*
X2212D02*
D03*
X2466Y5046D02*
D03*
X2212D02*
D03*
X2466Y3522D02*
D03*
X2212D02*
D03*
X2466Y474D02*
D03*
X2212D02*
D03*
D27*
X1628Y6883D02*
D03*
D28*
X1828D02*
D03*
X2028D02*
D03*
D29*
X1428D02*
D03*
X2228D02*
D03*
D33*
X1492Y5637D02*
D03*
X6174Y4876D02*
D03*
D34*
X1612Y6147D02*
D03*
X6174Y4388D02*
D03*
D42*
X7087Y460D02*
D03*
Y760D02*
D03*
Y1857D02*
D03*
Y2157D02*
D03*
X7087Y3256D02*
D03*
Y3556D02*
D03*
X7087Y6048D02*
D03*
Y6348D02*
D03*
Y4651D02*
D03*
Y4951D02*
D03*
X6759Y7033D02*
D03*
Y6733D02*
D03*
Y5636D02*
D03*
Y5336D02*
D03*
Y4239D02*
D03*
Y3939D02*
D03*
Y2842D02*
D03*
Y2542D02*
D03*
Y1445D02*
D03*
Y1145D02*
D03*
D44*
X4527Y5257D02*
D03*
X4367D02*
D03*
D49*
X7470Y6025D02*
D03*
Y6275D02*
D03*
Y6525D02*
D03*
Y3231D02*
D03*
Y3481D02*
D03*
Y3731D02*
D03*
Y1834D02*
D03*
Y2084D02*
D03*
Y2334D02*
D03*
Y4628D02*
D03*
Y4878D02*
D03*
Y5128D02*
D03*
X4256Y6908D02*
D03*
X4506D02*
D03*
X4756D02*
D03*
X2783D02*
D03*
X3033D02*
D03*
X3283D02*
D03*
X7470Y437D02*
D03*
Y687D02*
D03*
Y937D02*
D03*
D50*
Y6775D02*
D03*
Y3981D02*
D03*
Y2584D02*
D03*
Y5378D02*
D03*
Y1187D02*
D03*
D51*
X5006Y6908D02*
D03*
X3533D02*
D03*
D52*
X713Y1828D02*
D03*
Y2844D02*
D03*
Y3860D02*
D03*
Y4876D02*
D03*
Y812D02*
D03*
D53*
Y1320D02*
D03*
Y2336D02*
D03*
Y3352D02*
D03*
Y4368D02*
D03*
Y304D02*
D03*
D54*
X237Y5893D02*
D03*
X1237Y6143D02*
D03*
Y5643D02*
D03*
D55*
X3863Y1066D02*
D03*
X3609D02*
D03*
X4117Y304D02*
D03*
X3863D02*
D03*
X3609D02*
D03*
X3863Y2463D02*
D03*
X3609D02*
D03*
X4117Y1701D02*
D03*
X3863D02*
D03*
X3609D02*
D03*
X5895Y685D02*
D03*
Y939D02*
D03*
Y1193D02*
D03*
Y1447D02*
D03*
Y1701D02*
D03*
Y1955D02*
D03*
Y2209D02*
D03*
Y2463D02*
D03*
Y2717D02*
D03*
Y2971D02*
D03*
Y3225D02*
D03*
Y3479D02*
D03*
Y3733D02*
D03*
X5133Y431D02*
D03*
Y685D02*
D03*
Y939D02*
D03*
Y1193D02*
D03*
Y1447D02*
D03*
Y1701D02*
D03*
Y1955D02*
D03*
Y2209D02*
D03*
Y2463D02*
D03*
Y2717D02*
D03*
Y2971D02*
D03*
Y3225D02*
D03*
Y3479D02*
D03*
Y3733D02*
D03*
X3863Y3860D02*
D03*
X3609D02*
D03*
X4117Y3098D02*
D03*
X3863D02*
D03*
X3609D02*
D03*
X3863Y5257D02*
D03*
X3609D02*
D03*
X4117Y4495D02*
D03*
X3863D02*
D03*
X3609D02*
D03*
D56*
X5565Y6095D02*
D03*
X5311D02*
D03*
X5565Y5841D02*
D03*
X5311D02*
D03*
X5057Y6095D02*
D03*
Y5841D02*
D03*
X4549Y6095D02*
D03*
X4803Y5841D02*
D03*
Y6095D02*
D03*
X3685Y5841D02*
D03*
X3939D02*
D03*
X3685Y6095D02*
D03*
X3939D02*
D03*
X4193Y5841D02*
D03*
D57*
X4549D02*
D03*
X4193Y6095D02*
D03*
D61*
X5740Y4724D02*
D03*
X5890D02*
D03*
X5742Y4343D02*
D03*
X5892D02*
D03*
D62*
X3609Y2082D02*
D03*
X3914D02*
D03*
X3609Y3479D02*
D03*
X3914D02*
D03*
X1679Y6552D02*
D03*
X1374D02*
D03*
X3609Y685D02*
D03*
X3914D02*
D03*
X3609Y4876D02*
D03*
X3914D02*
D03*
X991Y5664D02*
D03*
X686D02*
D03*
X714Y6171D02*
D03*
X409D02*
D03*
X4346Y4698D02*
D03*
X4651D02*
D03*
D63*
X4631Y5003D02*
D03*
X4365D02*
D03*
D64*
X942Y6150D02*
D03*
Y5990D02*
D03*
D65*
X3177Y6164D02*
D03*
Y5824D02*
D03*
X2923Y6164D02*
D03*
Y5824D02*
D03*
D66*
X2024Y5891D02*
D03*
Y6121D02*
D03*
Y6351D02*
D03*
D67*
X2654Y6121D02*
D03*
D68*
X7089Y5206D02*
D03*
Y5511D02*
D03*
Y3809D02*
D03*
Y4114D02*
D03*
Y2412D02*
D03*
Y2717D02*
D03*
Y1015D02*
D03*
Y1320D02*
D03*
Y6603D02*
D03*
Y6908D02*
D03*
M02*
