M48
;Layer_Color=9474304
;FILE_FORMAT=4:2
METRIC,LZ
;TYPE=PLATED
T1F00S00C0.60
T2F00S00C0.70
T3F00S00C0.71
T4F00S00C0.80
T5F00S00C0.90
T6F00S00C1.00
T7F00S00C1.10
T8F00S00C1.30
%
T01
X00493Y000406
Y000685
X006176
Y000431
X006176Y000939
X006174Y001218
X006553Y001499
X006762Y001779
X006901Y002438
X006756Y002997
X006762Y003174
X006098Y002209
Y001955
X006901Y001067
X006759Y00038
X004689Y002724
Y002971
X005681Y004059
X006883Y003861
X006756Y004394
X006759Y004571
X006901Y005232
X006782Y005791
X006759Y005968
X006901Y006629
X006502Y00668
X005412Y006397
X005059Y006274
X005362Y00706
T02
X006174Y004388
Y004876
X001492Y005637
X001612Y006147
T03
X001298Y000812
T04
X001628Y006883
X001828
X002028
T05
X003609Y000304
Y001066
Y001701
Y002463
Y003098
X003863
X004117
Y002463
X003863
Y001701
X004117
Y001066
X003863
Y000304
X004117
X005133Y000431
Y000685
Y000939
Y001193
Y001447
Y001701
Y001955
Y002209
Y002463
Y002717
Y002971
Y003225
Y003479
X005895
Y003225
Y002971
Y002717
Y002463
Y002209
Y001955
Y001701
Y001447
Y001193
Y000939
Y000685
Y000431
X00747Y000437
Y000687
Y000937
Y001187
Y001834
Y002084
Y002334
Y002584
Y003231
Y003481
Y003731
Y003981
Y004628
Y004878
Y005128
Y005378
Y006025
Y006275
Y006525
Y006775
X005006Y006908
X004756
X004506
X004256
X004117Y005257
X003863
Y004495
X004117
Y00386
X003863
X005133Y003733
X005895
X003609Y00386
Y004495
Y005257
X003533Y006908
X003283
X003033
X002783
T06
X001882Y00066
X002644Y00132
X002872Y001472
X003609
Y002844
X002872
X002618Y002742
X00399Y002717
X003939Y00132
X00403Y004078
X003863Y004241
X004676Y004368
X005581Y004509
X00541Y006874
X003888Y006933
X00404Y006625
X00399Y005486
X003686Y006329
X003546Y006481
X002438Y006595
X002425Y006943
X002228Y006883
X001428
X001729Y005943
X001348Y005206
X000279Y005283
X000152Y006985
X002872Y004571
X002669Y004241
X003609Y004286
T07
X003939Y005841
Y006095
X004193
Y005841
X004549
Y006095
X004803
X005057
X005311
X005565
Y005841
X005311
X005057
X004803
X003685
Y006095
T08
X000713Y000304
Y000812
Y00132
Y001828
Y002336
Y002844
Y003352
X002212Y003522
X002466
X00272
Y001998
X002466
X002212
Y000474
X002466
X00272
Y005046
X002466
X002212
X001237Y005643
Y006143
X000237Y005893
X000713Y004876
Y004368
Y00386
M30
